<svg width="100px" height="100px" xmlns="http://www.w3.org/2000/svg" viewBox="0 0 291.89 299.27"><defs><style>.cls-1{fill:none;}.cls-1,.cls-2,.cls-3{fill-rule:evenodd;}.cls-2{fill:#a9705d;}.cls-3{fill:#020303;}</style></defs><g id="Layer_2" data-name="Layer 2"><g id="Layer_1-2" data-name="Layer 1"><path class="cls-1" d="M145.94,299.27c80.61,0,146-67,146-149.63S226.55,0,145.94,0,0,67,0,149.64,65.34,299.27,145.94,299.27"/><path class="cls-2" d="M69.89,140a2.81,2.81,0,0,1-4.17-.89s-1-1.64,1.94-3.72c0,0,8-5.21,9.83-5.51a9.44,9.44,0,0,0,2.23-3.13c.6-1.64,1.33-4,4-5.22s2.09-1.33,3.87-1.64,4.62-8.33,4.77-9.52,2.08-12.51,8.64-14,6.24,6.56,6.24,6.56.6,6,3.88,2.23a46.31,46.31,0,0,0,6.55-10.57c.44-1.2,3.87-10.72,6.7-14.9s8-12.8,13.7-10.56,3.87,8.63,3.28,10.71-3.43,8.34.59,9.83,5.51-7.89,5.51-7.89,6.11-24.12,13.11-24.86,10.27-.16,10,6.39-3,11.47-1.94,12.37,2.24-1.35,2.24-1.35S181.72,45.85,195.12,50c0,0,11.17,3.43,6.4,15.34a65.16,65.16,0,0,1-8,9.23c-4,3.58-3.72,6.25-2.08,6.7a50.16,50.16,0,0,0,5.35-1.49c3.13-1,11.77-6.84,20.55,2.68,0,0,7.74,9.54-8,13.71,0,0-5.5.73-17.26,0,0,0-5.82-.45-6,3.12,0,0,.45,1.78,4.48,2.39,5.23.77,15.33,1.48,16.23,5.36s.44,11.61-8.64,12.5c0,0-4.47,1.49-24.42-4.91,0,0-13.55-3.57-15.79-.15,0,0-.89,1,2.38,1.63s14.59.75,14.59,9.83c0,0,.16,10.42-15.93,5.06,0,0-7.29-3-10.87-4.61,0,0-8.48-2.53-10.12.15,0,0-1.34,1.64,2.53,3.87s8.79,4.92,6.85,7.9c0,0-5.8,8-23.23,0,0,0-2.23-1.65-4.61-3.14s-8.79-5.21-12.81-3.87c0,0,6.11,6.7-2.68,10,0,0-4,.45-12.51-3.12,0,0-10.27-3.28-17-1.64A17,17,0,0,0,69.89,140"/><path class="cls-3" d="M53.94,123.37a6.06,6.06,0,0,0-.06,12.11h0a6.07,6.07,0,0,0,6.07-6h0a6,6,0,0,0-6-6.1Zm0,12.87h0a6.82,6.82,0,0,1,.06-13.64h0a6.83,6.83,0,0,1,4.82,2.05,6.75,6.75,0,0,1,1.94,4.83A6.83,6.83,0,0,1,53.9,136.24Z"/><path class="cls-2" d="M54.94,129.09a.93.93,0,0,0,.47-.18.82.82,0,0,0,.34-.35,1.07,1.07,0,0,0,.13-.57,1,1,0,0,0-1.15-1.13l-2.16,0,0,2.27,1.81,0A3.69,3.69,0,0,0,54.94,129.09Zm-.16-3a2.12,2.12,0,0,1,1.46.48,1.54,1.54,0,0,1,.51,1.25,1.86,1.86,0,0,1-.28,1,1.39,1.39,0,0,1-.86.61v0a1.3,1.3,0,0,1,.46.19,1.13,1.13,0,0,1,.28.3,1.44,1.44,0,0,1,.15.41c0,.14.06.3.08.45s0,.32,0,.5a4.05,4.05,0,0,0,0,.48,3.11,3.11,0,0,0,.1.46,1.41,1.41,0,0,0,.21.38H56a.67.67,0,0,1-.12-.27,2.47,2.47,0,0,1,0-.39c0-.15,0-.31,0-.47a2.52,2.52,0,0,0,0-.48c0-.17,0-.32-.09-.46a.94.94,0,0,0-.17-.38,1,1,0,0,0-.31-.26,1.08,1.08,0,0,0-.51-.1l-2.13,0,0,2.8h-.87l.05-6.54Zm3.93,40,.35,5.91c-1.61,2.54-4.66,4.6-10.08,4.6-8.81,0-14.55-4.7-14.55-12.54,0-7.69,5.54-12.48,14.65-12.48A20.37,20.37,0,0,1,58,153.5l.07,5.9h-.3c-1.31-4.51-4.38-6.31-8.33-6.31-5.69,0-9.16,4.2-9.16,10.95s3.36,11,8.7,11.17c5.52,0,8.32-2.31,9.43-9.06Zm26.17-2c0-6.83-3.17-11.06-8.22-11.06s-8.23,4.23-8.23,11.06,3.17,11.06,8.23,11.06,8.22-4.24,8.22-11.06m5.89,0c0,7.72-5.5,12.5-14.11,12.5s-14.11-4.78-14.11-12.5S68,151.64,76.66,151.64s14.11,4.79,14.11,12.51m30.77-12v.34h-.66a2.19,2.19,0,0,0-2.22,2.06v17.75a21.3,21.3,0,0,0,.42,4.39h-.33l-18.12-16.54v13.64a2.17,2.17,0,0,0,2.21,2.07h.67v.35H92.64v-.35h.66a2.17,2.17,0,0,0,2.21-2.08V155.9a20,20,0,0,0-.42-4.29h.36l18.09,16.52V154.55a2.17,2.17,0,0,0-2.21-2.09h-.66v-.34Zm26.33,14,.35,5.91c-1.61,2.54-4.66,4.6-10.08,4.6-8.8,0-14.55-4.7-14.55-12.54,0-7.69,5.54-12.48,14.65-12.48a20.37,20.37,0,0,1,8.92,1.86l.07,5.9h-.3c-1.3-4.51-4.38-6.31-8.33-6.31-5.69,0-9.16,4.2-9.16,10.95s3.36,11,8.7,11.17c5.52,0,8.32-2.31,9.43-9.06Zm26.17-2c0-6.83-3.17-11.06-8.22-11.06s-8.23,4.23-8.23,11.06,3.17,11.06,8.23,11.06S174,171,174,164.15m5.89,0c0,7.72-5.5,12.5-14.11,12.5s-14.11-4.78-14.11-12.5,5.49-12.51,14.11-12.51,14.11,4.79,14.11,12.51m29.31-12v.35h-.59a1.79,1.79,0,0,0-1.89,1.62v13.38c0,5.64-3.87,9.18-10.32,9.18-7.68,0-11.69-3.51-11.69-9.12V154.17a1.79,1.79,0,0,0-1.9-1.7h-.58v-.35H192.6v.35H192a1.78,1.78,0,0,0-1.89,1.64v13.12c0,4.89,2.67,7.93,7,7.93s7.11-2.87,7.12-7.49V154.12a1.79,1.79,0,0,0-1.89-1.65h-.59v-.35Zm14.53,0c4.35,0,8.53,1.69,8.53,6.48a6.33,6.33,0,0,1-5.87,6.53,7.62,7.62,0,0,1,3.66,3c.11.17,2.26,3.44,3.61,5.05,1.54,1.89,2.57,2.58,4.44,2.61v.34h-3.5c-3.92,0-6.77-.81-8.42-3.56-.87-1.46-2.49-4.86-3-5.88-.69-1.44-1.49-2.17-2.42-2.32v-.33h1.09c1.93,0,3.89-1,4.53-4a7,7,0,0,0,.13-1.66c-.14-3.29-1.87-4.76-4.23-4.81-1,0-2.27,0-2.72,0v20a2.26,2.26,0,0,0,2.31,2.16h.44v.34H211.46v-.34h.45a2.26,2.26,0,0,0,2.3-2.15V154.62a2.25,2.25,0,0,0-2.29-2.16h-.46v-.34Zm28.43,11.72a6,6,0,0,1,3.22,5.7c-.22,4.48-3.74,7.12-9.47,7.12-3.22,0-6.23-.8-7.54-2.09-.59-1.44-.09-4.34.85-5.83h.32c-.29,3.58,2.46,6.53,6.76,6.47,3.12-.06,5-1.71,4.95-3.87,0-1.39-.94-2.32-2.86-3.54l-6.25-4c-2.47-1.57-3.7-3.66-3.43-6.16.3-3.56,3-6,7.54-6,1.16,0,3.25.16,4.89.35h2.25l-.47,5h-.34c0-2.38-2-3.95-5.06-3.95-2.82,0-4.61,1.46-4.69,3.3-.09,1.36,1,2.26,2.5,3.2ZM82.5,199.76c-1.2,0-1.87.58-1.84,1.61v5.87c-1.75,2.15-6.35,4.57-12.28,4.57-8.41,0-14-5-14-13S59.86,186,68.6,186a25.72,25.72,0,0,1,10.21,1.92l.07,6.09h-.3c-1.4-4.82-4.91-6.52-8.86-6.52-6.06,0-9.31,4.39-9.31,11.6,0,6.85,3,11.23,8.46,11.24,2.73,0,5.4-1.26,6.27-3.5v-5.43c0-1-.7-1.62-1.9-1.62h-.58v-.35h10.4v.35ZM94.07,184a29.06,29.06,0,0,1,5.33-5.82,4.77,4.77,0,0,1,2.51,2.88,28,28,0,0,1-7.58,3.19Zm9.41,27.29H84.3V211h.46a2.34,2.34,0,0,0,2.38-2.24V188.94a2.33,2.33,0,0,0-2.37-2.11h-.47v-.36h14.2a16.52,16.52,0,0,0,4.42-.64V192h-.38v-.42A3.45,3.45,0,0,0,98.94,188H92.7v10.32h4.91a3,3,0,0,0,3.15-3V195h.36v8.2h-.36v-.31a3,3,0,0,0-3.1-3h-5v10h4.87c3.7,0,6.1-2.2,7.25-5.72h.37Zm33.45-24.84v.36h-.69A2.24,2.24,0,0,0,134,189v18.33a22.68,22.68,0,0,0,.42,4.53h-.33l-18.72-17.07v14.08a2.25,2.25,0,0,0,2.29,2.14h.68v.35H107.08V211h.69a2.23,2.23,0,0,0,2.28-2.15V190.37a21,21,0,0,0-.43-4.43H110L128.68,203V189a2.25,2.25,0,0,0-2.29-2.15h-.68v-.36ZM148.74,184a28.76,28.76,0,0,1,5.33-5.82,4.77,4.77,0,0,1,2.51,2.88,28,28,0,0,1-7.58,3.19Zm9.41,27.29H139V211h.46a2.34,2.34,0,0,0,2.38-2.24V188.94a2.33,2.33,0,0,0-2.37-2.11H139v-.36h14.21a16.52,16.52,0,0,0,4.42-.64V192h-.38v-.42A3.45,3.45,0,0,0,153.6,188h-6.23v10.32h4.91a3,3,0,0,0,3.14-3V195h.37v8.2h-.37v-.31a3,3,0,0,0-3.09-3h-5v10h4.86c3.71,0,6.11-2.2,7.25-5.72h.37ZM175,186.47c4.49,0,8.82,1.75,8.82,6.69a6.55,6.55,0,0,1-6.07,6.75,7.82,7.82,0,0,1,3.78,3.14c.11.17,2.33,3.55,3.73,5.21,1.6,2,2.65,2.67,4.58,2.69v.36h-3.6c-4.06,0-7-.84-8.7-3.68-.9-1.5-2.57-5-3.09-6.08-.72-1.48-1.55-2.23-2.51-2.39v-.33h1.13c2,0,4-1,4.68-4.11a6.82,6.82,0,0,0,.14-1.71c-.15-3.4-1.94-4.92-4.37-5-1,0-2.35,0-2.81,0v20.69A2.33,2.33,0,0,0,173.1,211h.46v.36H162.3V211h.47a2.32,2.32,0,0,0,2.37-2.21V189.06a2.33,2.33,0,0,0-2.37-2.23h-.47v-.36Z"/><path class="cls-2" d="M203,202.85l-3.62-8.71-3.79,8.71Zm9,6.05a3.68,3.68,0,0,0,3.16,2.06h.31v.35h-11.8V211H204a1.52,1.52,0,0,0,1.43-2.23l-1.82-4.38h-8.7L193,208.73a1.5,1.5,0,0,0,1.42,2.23h.32v.35h-7.94V211h.33a3.66,3.66,0,0,0,3.12-2l8.56-18.55a23.72,23.72,0,0,0,1.83-4.65H201Zm23.1,2.41H215.93V211h.47a2.32,2.32,0,0,0,2.37-2.23V189.06a2.32,2.32,0,0,0-2.37-2.23h-.47v-.36h11.26v.36h-.47a2.32,2.32,0,0,0-2.37,2.23v20.73h4.86c3.7,0,6.1-2.2,7.25-5.72h.37Zm-116.59,15c4.31,0,6.18,2.19,6.27,5.09a5.14,5.14,0,0,1-8.1,4.65v-.26a3.76,3.76,0,0,0,3.91-3,5.65,5.65,0,0,0,.15-1.6c-.07-2.26-1.22-3.74-3.24-3.74h-1.68V243a1.65,1.65,0,0,0,1.61,1.67h.32v.26H110.1v-.26h.32A1.67,1.67,0,0,0,112,243V228.1a1.57,1.57,0,0,0-1.61-1.53h-.32v-.27Zm29.36,0c3.06,0,6,1.31,6,5,0,2.23-1.26,4.74-4.13,5a5.5,5.5,0,0,1,2.58,2.35c.07.13,1.59,2.66,2.54,3.9,1.08,1.46,1.8,2,3.12,2v.26h-2.46c-2.76,0-4.76-.62-5.92-2.75-.62-1.12-1.75-3.75-2.1-4.54-.49-1.11-1.06-1.68-1.71-1.79v-.26h.77c1.35,0,2.73-.74,3.18-3.06a5.81,5.81,0,0,0,.1-1.29c-.1-2.54-1.32-3.68-3-3.72-.67,0-1.6,0-1.91,0V243a1.66,1.66,0,0,0,1.62,1.67h.31v.26h-7.67v-.26h.32a1.67,1.67,0,0,0,1.62-1.66V228.24a1.66,1.66,0,0,0-1.62-1.67h-.32v-.27Z"/><path class="cls-2" d="M165.35,244.88h-7.66v-.26H158a1.67,1.67,0,0,0,1.62-1.67V228.22a1.67,1.67,0,0,0-1.62-1.65h-.32v-.27h7.66v.27H165a1.66,1.66,0,0,0-1.62,1.65V243a1.66,1.66,0,0,0,1.62,1.67h.32Zm12.16-9.52a4.74,4.74,0,0,1,2.27,4.4c-.16,3.46-2.63,5.5-6.67,5.5-2.26,0-4.38-.62-5.3-1.62a6.65,6.65,0,0,1,.6-4.5h.22a4.52,4.52,0,0,0,4.76,5c2.19,0,3.48-1.32,3.48-3,0-1.07-.66-1.79-2-2.74l-4.39-3.07a5,5,0,0,1-2.42-4.76c.22-2.75,2.13-4.65,5.32-4.65a32,32,0,0,1,3.43.27h1.58l-.33,3.91h-.24c0-1.85-1.42-3.06-3.56-3.06-2,0-3.24,1.13-3.3,2.55-.06,1.05.71,1.75,1.76,2.47Zm-44.54.08a118.79,118.79,0,0,1-3.63-20.4h-.41c0,.47,0,1,0,1.42-.09,5-.19,10.1-.26,15.16a17.41,17.41,0,0,1-.56,3.17l-.35,2.07c-.07.35-.13.64-.19.91-.33,1.45-.7,2.9-1,4.35-.15.68-.53,1-1.46,1.11a11.61,11.61,0,0,0-1.84.4,2.68,2.68,0,0,1,.07.27l2.51,0a3.57,3.57,0,0,1-.13.56,14.14,14.14,0,0,1-2.86,4.9c-.45.46-.69,1,0,1.39a1.26,1.26,0,0,0,1.68-.36c.39-.39.71-.83,1.09-1.23a9.38,9.38,0,0,1,8.59-2.94l1,.13a9.11,9.11,0,0,0-8-.28,6.52,6.52,0,0,0,.42-1.21c.12-.64.55-.87,1.33-.92,1.51-.1,3-.26,4.53-.44a1.16,1.16,0,0,1,1.33.62c1,1.68,2.14,3.31,3.26,5a4.69,4.69,0,0,0,.9.94,1.06,1.06,0,0,0,1.45.15c.24-.25.12-.74.08-1.12,0-.15-.27-.29-.41-.43a25.12,25.12,0,0,1-3.94-5.73l1.38-.43a1.1,1.1,0,0,0-.27-.13.42.42,0,0,0-.19,0,1.4,1.4,0,0,1-1.77-1.06c-.5-1.3-1.08-2.58-1.63-3.87Zm-3.06-1.73c.15,0-.09.24,0,0a4.76,4.76,0,0,0,.17-.58,7.15,7.15,0,0,0,0-.8c0,1.19,1.11,2.22,1.41,4l.54,1.17c.55,1.51,1.09,3,1.65,4.49l-5.35.52c.4-1.93.77-3.7,1.13-5.46Z"/><path class="cls-2" d="M130.1,234l-.4,3.15-1.08,5.18,1.49-.15,3.27-.32-1.55-4.21-.55-1.21a8.21,8.21,0,0,0-.8-2.25l-.29-.59,0,.09a.28.28,0,0,1,0,.2A.3.3,0,0,1,130.1,234Zm-2,8.83.06-.3c.4-1.93.77-3.7,1.13-5.46l.42-3.23a.28.28,0,0,1,0-.15l0-.26.05,0a1.49,1.49,0,0,0,.08-.32,5,5,0,0,0,0-.55v-.22h.45a4.4,4.4,0,0,0,.57,1.65,8.19,8.19,0,0,1,.84,2.34l.52,1.14,1.76,4.77-.29,0-3.56.35Zm-4.11.89h.92l1.25,0-.05.26c0,.07,0,.13,0,.18a1.51,1.51,0,0,1-.1.42,14.37,14.37,0,0,1-2.91,5c-.26.27-.39.5-.37.67a.57.57,0,0,0,.3.37c.46.29.89.19,1.4-.33.21-.21.4-.43.58-.65s.33-.38.51-.57a9.48,9.48,0,0,1,8.24-3.07,9.41,9.41,0,0,0-6.4.34l-.46.17L127,246c.06-.17.12-.31.17-.45a3,3,0,0,0,.24-.72c.16-.91.91-1.07,1.54-1.11,1.63-.11,3.26-.29,4.51-.44a1.38,1.38,0,0,1,1.56.73c1,1.64,2.12,3.28,3.2,4.87l0,.07a4.73,4.73,0,0,0,.85.89c.32.28.81.49,1.15.16.13-.13.08-.46.05-.73l0-.2a1.56,1.56,0,0,0-.17-.15,1.37,1.37,0,0,1-.18-.16,24.81,24.81,0,0,1-4-5.78l-.12-.23.65-.21a1.59,1.59,0,0,1-1.39-1.23c-.35-.92-.75-1.84-1.14-2.74-.16-.37-.33-.74-.49-1.12l-.7-2a116.69,116.69,0,0,1-3.6-20c0,.33,0,.66,0,1l-.06,3.61q-.1,5.77-.2,11.55a10.41,10.41,0,0,1-.35,2.26q-.1.44-.21,1L128,237c-.07.32-.12.59-.18.85l-.36,1.5c-.22.94-.44,1.89-.64,2.83a1.55,1.55,0,0,1-1.67,1.29A6.24,6.24,0,0,0,124,243.69Zm-.5,7.52a1.42,1.42,0,0,1-.74-.23,1,1,0,0,1-.5-.69,1.33,1.33,0,0,1,.48-1,14.07,14.07,0,0,0,2.83-4.83,1.67,1.67,0,0,0,.06-.26h-.72l-1.52,0h-.17l0-.16c0-.09,0-.18-.07-.27l-.07-.23.23-.05.56-.14a6.33,6.33,0,0,1,1.31-.26c.89-.06,1.14-.4,1.26-.94.2-.95.42-1.9.65-2.84.12-.5.24-1,.35-1.51.06-.25.11-.51.18-.83v-.07l.35-2.06c.07-.36.15-.68.22-1a10,10,0,0,0,.33-2.16q.09-5.79.2-11.56l.07-3.61c0-.32,0-.65,0-1v-.65h.84l0,.2a116,116,0,0,0,3.62,20.35l.69,2c.15.36.32.73.48,1.1.39.9.79,1.83,1.15,2.76a1.18,1.18,0,0,0,1.52.92.58.58,0,0,1,.3,0l.15.07.15.08.5.24-1.66.52a24.09,24.09,0,0,0,3.79,5.44.77.77,0,0,0,.13.12.72.72,0,0,1,.33.44l0,.2a1.3,1.3,0,0,1-.17,1.11,1.27,1.27,0,0,1-1.76-.14,5.35,5.35,0,0,1-.93-1l0-.07c-1.09-1.59-2.21-3.23-3.22-4.89a.94.94,0,0,0-1.12-.51c-1.25.14-2.89.32-4.53.43-.84.06-1,.33-1.13.74a4,4,0,0,1-.25.8,9.15,9.15,0,0,1,7.67.45l-.14.42-.15,0-.81-.1a9.14,9.14,0,0,0-8.4,2.87c-.17.18-.33.36-.49.55a7.56,7.56,0,0,1-.6.67A1.72,1.72,0,0,1,123.45,251.21ZM35.21,98.83a16.73,16.73,0,0,0-2-1.29.74.74,0,0,0-.27-.06.32.32,0,0,0-.28.2c-.12.29.11.44.3.56a2.7,2.7,0,0,1,.78.93c.46.91.23,1.81-.33,3.16A5.17,5.17,0,0,1,30.63,105a6.12,6.12,0,0,1-4.9-.1,5.61,5.61,0,0,1-3.47-3.14,4.32,4.32,0,0,1,.26-3.3,4.93,4.93,0,0,1,2.27-2.72,2.37,2.37,0,0,1,1.62,0c.14.06.52.22.66-.11s-.2-.49-.38-.58-.48-.23-.81-.37-.66-.29-.92-.42-.52-.27-.65-.34l-.21-.12a.42.42,0,0,0-.53.24c-.13.24-.29.47-.46.72l-.49.76a17.69,17.69,0,0,0-1.15,2.28,7.78,7.78,0,0,0-.42,5.91,6.92,6.92,0,0,0,3.74,3.85,7.86,7.86,0,0,0,3,.65,6.32,6.32,0,0,0,2.75-.63h0a8.7,8.7,0,0,0,4.17-4.84,10.17,10.17,0,0,0,.85-3.11.79.79,0,0,0-.36-.75m4.41-8.34c-1.32,2.3-4.23,2.78-7.08,1.15a5.13,5.13,0,0,1-2.66-2.86,3.32,3.32,0,0,1,.4-2.55,4,4,0,0,1,3.57-2,6.67,6.67,0,0,1,3.27,1A5.29,5.29,0,0,1,40,88.32a3.07,3.07,0,0,1-.35,2.17m-1.76-7.77c-3.19-1.82-6.38-.83-8.33,2.57a6.38,6.38,0,0,0-.66,5.4A6.47,6.47,0,0,0,31.73,94a6.7,6.7,0,0,0,3.27.89,6,6,0,0,0,5.29-3.31,6.24,6.24,0,0,0-2.43-8.89m12.82-7.78L43,69c-.7-.53-.77-.74-.66-1a1.42,1.42,0,0,1,.21-.36c.25-.33.09-.5,0-.56-.26-.19-.49.13-.57.24-.3.41-.54.77-.7,1s-.12.19-.16.24-.19.24-.33.42-.51.65-.8,1c-.15.19-.23.32-.2.47a.31.31,0,0,0,.11.19.36.36,0,0,0,.22.06.47.47,0,0,0,.29-.22,2.83,2.83,0,0,1,.5-.55c.22-.13.43-.17,1.23.4l5.36,3.78-1.27.16c-1.06.13-2.39.29-3.22.41-3.22.48-6.56.87-6.76.89l-.21,0c-.3,0-.51,0-.64.22s.19.62.34.73l7.23,5.52c1.06.79,1.29,1,1.2,1.31a2.55,2.55,0,0,1-.32.55c-.22.3-.1.46,0,.53a.3.3,0,0,0,.19.06c.18,0,.32-.19.39-.28.33-.45.62-.88.79-1.13l.16-.23.26-.33c.22-.27.52-.65.9-1.16.08-.11.32-.43,0-.63a.27.27,0,0,0-.21-.06A.5.5,0,0,0,46,81a2.17,2.17,0,0,1-.52.53c-.14.1-.45.14-1.49-.58L39.1,77.45c.92-.09,2.94-.31,4.85-.6l2.86-.41c1.39-.2,2.69-.38,3.47-.52a1,1,0,0,0,.71-.28c.22-.31-.16-.6-.31-.7m9.1-10.48a14.87,14.87,0,0,0-1.31-1.68c-.28-.26-.47-.1-.53-.05-.2.22,0,.43.08.59a2.32,2.32,0,0,1,.36,1c.1.88-.35,1.56-1.22,2.49a4.47,4.47,0,0,1-3,1.34,5.33,5.33,0,0,1-4-1.55A4.91,4.91,0,0,1,48.19,63a3.82,3.82,0,0,1,1.2-2.63,4.32,4.32,0,0,1,2.69-1.57h0a2.06,2.06,0,0,1,1.3.48.68.68,0,0,0,.4.21.3.3,0,0,0,.21-.1c.22-.24,0-.5-.14-.62s-.32-.33-.56-.56-.46-.44-.63-.62-.35-.38-.44-.48l-.14-.16a.39.39,0,0,0-.54,0,6.06,6.06,0,0,1-.59.46c-.2.14-.42.3-.64.48a14.49,14.49,0,0,0-1.63,1.54,6.83,6.83,0,0,0-2.13,4.78,6.36,6.36,0,0,0,6.14,6.11l.58,0h0a7.68,7.68,0,0,0,4.91-2.76,9,9,0,0,0,1.65-2.32.72.72,0,0,0-.07-.76m7.66-8.16a3,3,0,0,1-1,1.92c-2,1.74-4.91,1.22-7.06-1.26C56.69,53.9,58,52,59,51.1a3.78,3.78,0,0,1,2.54-1,5.81,5.81,0,0,1,4.26,2.25,5.26,5.26,0,0,1,1.64,3.91m-.12-6c-2.41-2.78-5.75-2.92-8.71-.35a6.1,6.1,0,0,0-.83,9A6.51,6.51,0,0,0,69,55a6.6,6.6,0,0,0-1.69-4.64M78.5,43.23l-1-1.53c-1.21-1.77-1.47-2.14-1.71-2.55s-.25-.63-.06-.82a2.55,2.55,0,0,1,.32-.27.49.49,0,0,0,.24-.29.3.3,0,0,0,0-.23.28.28,0,0,0-.32-.12,1,1,0,0,0-.28.14l-1,.75c-.18.13-.32.24-.38.27l-.06,0c-.22.14-.87.55-1.41.92a.56.56,0,0,0-.29.32.37.37,0,0,0,0,.23c.09.12.25.22.55,0a2.07,2.07,0,0,1,.45-.25c.36-.15.52-.09.82.29s.53.73,1.87,2.68l1.09,1.6c.91,1.33,1.6,2.44,1.4,3.52a2.8,2.8,0,0,1-1.2,1.76,2.55,2.55,0,0,1-1.81.53c-.76-.07-1.64-.4-3-2.38l-1.22-1.79c-1.3-1.91-1.56-2.29-1.81-2.71s-.25-.63-.05-.84a2.21,2.21,0,0,1,.3-.25A.5.5,0,0,0,70.1,42a.28.28,0,0,0-.06-.23c-.18-.26-.49,0-.61,0l-.86.63-.66.47c-.17.12-.41.28-.7.46s-.79.51-1.17.77c-.16.1-.27.2-.29.33a.24.24,0,0,0,0,.22.3.3,0,0,0,.19.13.47.47,0,0,0,.36-.11,2.77,2.77,0,0,1,.48-.28c.37-.15.53-.1.83.3s.54.73,1.85,2.65l1.29,1.88c1.13,1.66,2.26,2.51,3.56,2.69a3.12,3.12,0,0,0,.52,0,5.37,5.37,0,0,0,3-1.11A4.7,4.7,0,0,0,80,48C80.4,46.33,79.52,44.72,78.5,43.23Zm6.15-3.91s0,0-.06-.08l-2.23-4.13s0,0,0,0a3.56,3.56,0,0,1,.64-.41c.71-.38,2.16-.54,3.16,1.3a2.53,2.53,0,0,1,.3,2.3c-.12.25-.22.38-.75.67a3.82,3.82,0,0,1-1,.39m10.38.9a.32.32,0,0,0-.47-.1,2.55,2.55,0,0,1-.38.16,2.86,2.86,0,0,1-1.88-.12c-1.07-.35-2.38-.92-4-1.65l-.62-.27a4.43,4.43,0,0,0,.06-4,2.85,2.85,0,0,0-2.06-1.46,5,5,0,0,0-2.9.77l-.88.5-1,.57-.52.26L79,35.58c-.17.09-.29.18-.33.31a.34.34,0,0,0,0,.22.34.34,0,0,0,.18.15.49.49,0,0,0,.37-.08,2.66,2.66,0,0,1,.51-.22c.38-.12.53,0,.79.38s.45.77,1.43,2.58l1.44,2.67c.64,1.18,1.24,2.3,1.48,2.9s.19.65.06.76a1.75,1.75,0,0,1-.42.29.49.49,0,0,0-.25.26.34.34,0,0,0,0,.22.3.3,0,0,0,.27.16.68.68,0,0,0,.32-.1c.32-.17.74-.42,1.08-.62l.54-.31.43-.22c.42-.21,1-.52,1.57-.8s.33-.42.27-.53a.35.35,0,0,0-.17-.15.39.39,0,0,0-.29,0,7.08,7.08,0,0,1-.67.29c-.28.11-.44,0-.72-.4s-1-1.66-1.62-2.85l-.08-.14,1.13-.57c.09,0,.11,0,.15,0s.6.28,1.11.54l1.22.61a7.4,7.4,0,0,0,3,1h0a3.26,3.26,0,0,0,1.66-.54l1.27-.69a.53.53,0,0,0,.29-.28.31.31,0,0,0,0-.24M100.26,35c-.61-1.42-1.69-2.16-4-2.73l-.52-.13c-1.6-.41-2-.76-2.25-1.3a1.45,1.45,0,0,1,1-1.94,1.76,1.76,0,0,1,1.67,0,1.7,1.7,0,0,1,.69.69c.16.38.4.33.49.29a.29.29,0,0,0,.17-.17.83.83,0,0,0-.1-.56c-.34-.78-.49-1.22-.59-1.49l-.09-.24a.36.36,0,0,0-.46-.19,7.38,7.38,0,0,0-2,.57c-2,.87-2.91,2.64-2.19,4.32.55,1.27,1.64,2,3.65,2.57l.87.24c1.46.39,1.94.89,2.23,1.57a1.7,1.7,0,0,1-1.09,2.19,2,2,0,0,1-2.41-.52,2.72,2.72,0,0,1-.41-.62.53.53,0,0,0-.24-.29.31.31,0,0,0-.25,0c-.3.13-.15.54-.1.68.26.74.51,1.38.73,1.89.15.35.27.48.64.48h0a5.45,5.45,0,0,0,2.23-.53A4.5,4.5,0,0,0,100,38.16a3.32,3.32,0,0,0,.28-3.21m20.54-4.32-.49-1.87c-.24-.91-.41-1.54-.52-2s0-.79.28-.92a2.08,2.08,0,0,1,.41-.16c.29-.08.35-.27.31-.42a.32.32,0,0,0-.27-.25.88.88,0,0,0-.33,0c-.29.07-.65.19-1,.29l-.93.28-.93.22c-.48.11-1,.24-1.52.37-.15,0-.53.14-.44.49,0,.09.12.3.51.2a3.13,3.13,0,0,1,.63-.12c.47,0,.64.12.8.65s.31,1.13.53,1.94l.43,1.65c.08.3,0,.42-.09.52a3.69,3.69,0,0,1-1.31.53,5.55,5.55,0,0,1-4.59-.68,6.83,6.83,0,0,1-2.72-4A5.16,5.16,0,0,1,110,22.9a4.79,4.79,0,0,1,3-1.85,5.37,5.37,0,0,1,4,.31,2.35,2.35,0,0,1,.87,1.17c.1.24.24.34.44.28a.32.32,0,0,0,.22-.15.59.59,0,0,0,0-.47,25.82,25.82,0,0,1-.58-2.61.78.78,0,0,0,0-.21c-.06-.23-.22-.32-.5-.27a11.55,11.55,0,0,1-1.35.16,20.77,20.77,0,0,0-3.08.52,8.51,8.51,0,0,0-4.31,2.34,6.78,6.78,0,0,0-1.5,6.5,6.53,6.53,0,0,0,6.82,5.13,11.61,11.61,0,0,0,2.92-.4,10.24,10.24,0,0,0,3.93-1.88c.24-.25.22-.38.1-.84m11.35-2.71a.5.5,0,0,0-.15-.36.25.25,0,0,0-.22,0c-.27,0-.28.29-.29.43,0,.6-.12.88-.42,1.08a3.83,3.83,0,0,1-1.32.37c-1.54.23-1.65,0-1.81-.86,0-.31-.17-1.1-.26-1.74l-.27-1.8c.47-.07,1.78-.25,2.05-.27.53,0,.68.17.76.36s.07.25.1.36a1.06,1.06,0,0,0,0,.14.29.29,0,0,0,.12.22.31.31,0,0,0,.24.05.28.28,0,0,0,.2-.12.52.52,0,0,0,.05-.4c0-.06,0-.27-.05-.5s0-.39,0-.52c0-.52,0-.8-.05-1v-.18a.37.37,0,0,0-.12-.22.26.26,0,0,0-.21,0c-.16,0-.23.14-.34.31s-.22.18-.58.26-1.83.31-2.33.38L126.67,20c.44-.07,1.83-.24,2.06-.25.74,0,.83.14.93.31a1.59,1.59,0,0,1,.15.47.4.4,0,0,0,.14.29.32.32,0,0,0,.23.05c.1,0,.27-.08.29-.37,0-.12,0-.42-.05-.69a3.1,3.1,0,0,1,0-.34,7.63,7.63,0,0,1,0-.84.59.59,0,0,0,0-.19.35.35,0,0,0-.12-.23.23.23,0,0,0-.2,0,.68.68,0,0,0-.2.07.29.29,0,0,1-.08,0,5.65,5.65,0,0,1-.6.18c-.26.05-3.08.48-3.77.58l-.78.09-.17,0-.6.08-.63.09c-.14,0-.51.08-.47.4a.38.38,0,0,0,.12.2.48.48,0,0,0,.37.05,2,2,0,0,1,.56,0c.39,0,.51.14.61.63s.16.87.52,3.22l.41,2.75c.21,1.37.38,2.55.4,3.18s0,.67-.19.73a2.17,2.17,0,0,1-.5.13c-.36.06-.39.26-.37.37s.09.27.38.27h.15l.5-.09.55-.1.77-.13h.08c.47-.07,1-.13,1.57-.19l.4,0c.58-.07,1.31-.16,2.23-.3.58-.09.85-.13.91-.69a11.64,11.64,0,0,0-.06-1.76m-6.39-9.78h0A.6.6,0,0,0,126,18l.1-.07a9.17,9.17,0,0,1,2.38-1.26,1.76,1.76,0,0,1,.41-.06H129a.3.3,0,0,0,.23-.17.37.37,0,0,0-.07-.35c-.27-.43-.44-.68-.58-.86s-.2-.26-.42-.22a.87.87,0,0,0-.37.22c-.24.22-1.65,1.65-2.17,2.32a.5.5,0,0,0-.14.36.29.29,0,0,0,.28.23M147,17.29a.64.64,0,0,0-.46-.09c-.51,0-.94.06-1.22.09l-.27,0h-.54c-.36,0-.83,0-1.31,0-.19,0-.58,0-.57.35,0,.11,0,.31.45.29a2.69,2.69,0,0,1,.74.05c.24.09.4.22.46,1.2l.45,6.54-.89-.85c-.78-.75-1.75-1.69-2.38-2.27-2.3-2.1-4.73-4.45-5-4.68l-.14-.14c-.21-.22-.38-.38-.58-.36-.38,0-.36.53-.35.72l.29,9.09c0,1.32,0,1.67-.27,1.76a2.12,2.12,0,0,1-.63.1.49.49,0,0,0-.34.12.27.27,0,0,0-.07.21c0,.28.27.31.44.31h.09c.56,0,1.08-.07,1.39-.1l.26,0H137c.34,0,.82,0,1.47,0a.63.63,0,0,0,.44-.14.29.29,0,0,0,.07-.22.26.26,0,0,0-.08-.19.49.49,0,0,0-.37-.09,2.11,2.11,0,0,1-.74-.07c-.16-.05-.39-.26-.48-1.52l-.44-6c.64.64,2.09,2.09,3.52,3.39l2.11,1.94c1,.95,2,1.86,2.61,2.38a1.1,1.1,0,0,0,.65.36h0c.38,0,.35-.49.35-.67l-.29-9.74c0-.88.1-1.07.38-1.16a1.23,1.23,0,0,1,.41-.06.5.5,0,0,0,.36-.13.3.3,0,0,0,.08-.22.29.29,0,0,0-.09-.2m6.68-.63h0a.62.62,0,0,0,.23-.08l.11,0a9,9,0,0,1,2.59-.75,2,2,0,0,1,.41,0h.09a.3.3,0,0,0,.26-.12.35.35,0,0,0,0-.36c-.18-.46-.29-.74-.4-1s-.14-.29-.36-.3a.74.74,0,0,0-.41.15,26.18,26.18,0,0,0-2.6,1.83.49.49,0,0,0-.21.32.27.27,0,0,0,.25.29m2.55,2.21c.74.13.79.3.85.49a1.37,1.37,0,0,1,.05.49.43.43,0,0,0,.09.32.28.28,0,0,0,.21.09c.11,0,.28,0,.35-.3,0-.12.06-.42.1-.68s0-.29,0-.35a6.15,6.15,0,0,1,.14-.83.82.82,0,0,0,0-.18.31.31,0,0,0-.06-.25.28.28,0,0,0-.19-.08.47.47,0,0,0-.21,0l-.08,0-.63.05c-.26,0-2.77-.13-3.59-.18h-.22l-.84-.07h-.12l-.6,0-.64-.05c-.14,0-.51,0-.53.3a.26.26,0,0,0,.07.22.46.46,0,0,0,.35.12,3.67,3.67,0,0,1,.56.08c.38.1.47.24.47.74s0,.89-.15,3.26l-.15,2.78c-.07,1.38-.14,2.57-.24,3.19s-.18.66-.34.68a2.44,2.44,0,0,1-.52,0,.46.46,0,0,0-.35.09.23.23,0,0,0-.09.19.29.29,0,0,0,.07.22.55.55,0,0,0,.4.14l.5,0h.56c.34,0,.65,0,.87,0,.42,0,.86.06,1.58.13l.36,0c.6.05,1.34.11,2.28.16l.34,0a.61.61,0,0,0,.69-.5,12.05,12.05,0,0,0,.3-1.75.69.69,0,0,0,0-.25.27.27,0,0,0-.27-.22c-.28,0-.33.23-.37.36-.13.58-.3.84-.64,1a3.88,3.88,0,0,1-1.36.09c-1.56-.08-1.62-.32-1.59-1.21,0-.32,0-1.16.09-1.77l.1-1.8c.52,0,1.81.11,2.06.15.52.09.63.3.67.5a2.55,2.55,0,0,1,0,.38c0,.06,0,.11,0,.14a.31.31,0,0,0,.07.24.35.35,0,0,0,.23.1.3.3,0,0,0,.22-.08.55.55,0,0,0,.13-.38c0-.07,0-.3.06-.55s0-.35.05-.47c.07-.5.12-.78.15-.94s0-.16,0-.19a.31.31,0,0,0-.08-.23.25.25,0,0,0-.2-.09c-.14,0-.26.1-.39.24s-.25.13-.62.14-1.84-.07-2.36-.1l.21-3.86c.46,0,1.85.13,2.07.17m11.68,3.84a2.56,2.56,0,0,1-1.13,2,1.41,1.41,0,0,1-1,.08,3.69,3.69,0,0,1-1.07-.31s0,0,0-.1l.68-4.65a.06.06,0,0,1,0,0h0a3.61,3.61,0,0,1,.76.06c.79.12,2.06.87,1.75,2.93m4.26,8.38a2.32,2.32,0,0,1-.41-.11,2.92,2.92,0,0,1-1.43-1.22c-.65-.93-1.37-2.18-2.27-3.76l-.33-.57a4.44,4.44,0,0,0,2.44-3.17,2.85,2.85,0,0,0-.78-2.4,5,5,0,0,0-2.78-1.12l-1.06-.13-1.08-.14-.63-.11c-.42-.07-1-.17-1.44-.24-.14,0-.51-.07-.56.24,0,.15,0,.33.39.39a2.92,2.92,0,0,1,.55.12c.37.14.45.29.4.78s-.11,1-.44,3.23l-.4,2.69c-.2,1.34-.38,2.6-.55,3.23-.14.47-.24.63-.4.64a2.18,2.18,0,0,1-.51,0,.52.52,0,0,0-.36.06.27.27,0,0,0-.11.18.31.31,0,0,0,0,.23.57.57,0,0,0,.38.18l1.23.15.62.07.5.09,1.72.29a.66.66,0,0,0,.42-.06.31.31,0,0,0,.11-.2.25.25,0,0,0,0-.22.35.35,0,0,0-.26-.14c-.18,0-.5-.11-.71-.17s-.36-.25-.34-.74c0-.66.21-1.92.41-3.26l0-.16,1.25.22c.09,0,.11,0,.13.06s.31.59.57,1.11l.61,1.21a7.56,7.56,0,0,0,1.8,2.61,3.2,3.2,0,0,0,1.66.56l1.43.22h.16a.4.4,0,0,0,.24-.07.27.27,0,0,0,.12-.21c0-.14-.05-.31-.31-.35"/><path class="cls-2" d="M175.36,28.61h0l.05-.18Zm3.16-.39-2.43-.6,2-3Zm4.3,5.68a.58.58,0,0,0-.21-.1,2.45,2.45,0,0,1-.57-.2c-.18-.09-.57-.29-.8-1.82-.21-1.35-.56-3.86-.87-6.07-.26-1.89-.49-3.52-.56-3.94s-.13-.66-.39-.72-.48.19-.75.56l-6,8.38c-.49.68-.84,1-1.43,1l-.44-.08c-.33-.09-.41.14-.43.21-.08.32.27.41.38.44.52.13,1.07.24,1.42.31l.34.08c.23.05.49.13.76.21l.8.22a.47.47,0,0,0,.37,0,.32.32,0,0,0,.14-.2.28.28,0,0,0,0-.22.47.47,0,0,0-.3-.18l-.23,0c-.41-.1-.37-.27-.34-.39a2.81,2.81,0,0,1,.42-.8l1.31-1.86,3.27.8.42,3.39a.2.2,0,0,1,0,.1c-.09,0-.37-.06-.44.22s.21.35.48.43l.07,0c1.1.3,2.13.56,2.79.72a2.75,2.75,0,0,0,.62.12.42.42,0,0,0,.2-.05.33.33,0,0,0,.13-.18A.27.27,0,0,0,182.82,33.9Zm9.07.89c-.19-.06-.35,0-.46.26a1.86,1.86,0,0,1-.6.67c-.41.22-.91.08-1.68-.19-1.11-.38-1.41-.59-1.55-.84s.22-1.41.79-3.09l.89-2.57c.77-2.25.91-2.63,1.09-3.08s.36-.58.62-.54a3.63,3.63,0,0,1,.55.15c.29.09.47,0,.54-.16a.28.28,0,0,0,0-.22.61.61,0,0,0-.36-.25l-1.23-.39-.75-.24L189,24l-1.23-.45c-.14,0-.49-.17-.6.13,0,.14,0,.33.32.45a2.25,2.25,0,0,1,.43.19c.33.2.38.37.25.84s-.26.86-1,3l-.91,2.65c-.45,1.33-.85,2.48-1.13,3.06s-.34.58-.51.56a2,2,0,0,1-.5-.11c-.36-.12-.47,0-.51.15a.3.3,0,0,0,0,.23.55.55,0,0,0,.34.25l.48.15.54.16.78.25,0,0c.57.2,1.08.38,1.75.65l.49.18c.53.2,1.15.43,1.94.7a2.64,2.64,0,0,0,.74.18.6.6,0,0,0,.52-.33,12.75,12.75,0,0,0,.81-1.65c.05-.12.15-.42-.14-.52m9.93,2.48h0l.08-.16Zm3.6.43-2.6-1.31,3.1-2.89Zm0,.22.09-.16h0Zm3.31,7.21a.47.47,0,0,0-.24-.24,3.9,3.9,0,0,1-.59-.36c-.18-.16-.56-.48-.44-2.25.11-1.55.36-4.44.57-7,.19-2.13.34-4,.37-4.46s0-.74-.23-.87-.53.06-1,.43l-8.79,7.76c-.72.65-1.21.93-1.84.72l-.48-.21a.34.34,0,0,0-.5.12c-.15.32.18.48.3.55.57.28,1.18.56,1.54.72l.32.15.78.42c.29.16.58.33.84.46a.56.56,0,0,0,.4.07A.39.39,0,0,0,200,41c.14-.29-.14-.43-.25-.49l-.24-.11c-.18-.1-.3-.2-.33-.3a.32.32,0,0,1,0-.26,3.26,3.26,0,0,1,.67-.78l1.94-1.75L205.28,39l-.38,3.86a.19.19,0,0,1-.05.11l0,0c-.1,0-.38-.14-.51.12s.14.41.4.56l.08.05c1.27.68,2.47,1.28,2.92,1.51a2.22,2.22,0,0,0,.76.28h.11a.33.33,0,0,0,.17-.15A.3.3,0,0,0,208.77,45.13Zm15.53-3.29a10.58,10.58,0,0,1-.89-.78,19.82,19.82,0,0,0-2.17-1.71,7.51,7.51,0,0,0-4.09-1.43A5.94,5.94,0,0,0,212,40.79c-2.51,3.85-.26,7.27,2.68,9.18a9.09,9.09,0,0,0,3.55,1.46h.06c.28,0,.36-.11.58-.44l.92-1.43c.4-.62.75-1.15,1-1.54s.5-.46.75-.36a3.47,3.47,0,0,1,.34.17.39.39,0,0,0,.31.08.32.32,0,0,0,.18-.12.33.33,0,0,0,0-.24.53.53,0,0,0-.28-.31c-.22-.15-.51-.32-.8-.5l-.72-.44-.68-.46c-.36-.25-.77-.54-1.16-.79-.11-.07-.42-.27-.6,0a.23.23,0,0,0,0,.21.43.43,0,0,0,.22.27,2.41,2.41,0,0,1,.44.34c.29.29.29.47,0,.87s-.56.89-1,1.54l-.79,1.21c-.15.23-.26.26-.38.24a3.18,3.18,0,0,1-1.11-.54,4.86,4.86,0,0,1-2.26-3.37,6,6,0,0,1,1-4.14,4.49,4.49,0,0,1,3.11-2.33,4.22,4.22,0,0,1,2.94.82,4.65,4.65,0,0,1,2.12,2.75,2,2,0,0,1-.24,1.25c-.14.27,0,.41.08.48.29.19.49-.12.57-.23a21.42,21.42,0,0,1,1.34-1.91.69.69,0,0,0,.13-.16.35.35,0,0,0-.13-.52m6.62,6.21a2.06,2.06,0,0,1,.74,1.38,2.8,2.8,0,0,1-.73,2,2.56,2.56,0,0,1-2,1.16c-.28,0-.44-.06-.91-.44a3.72,3.72,0,0,1-.76-.81s0,0,.05-.09l3-3.64a.07.07,0,0,1,0,0h0a3.06,3.06,0,0,1,.62.44m2.74,1.71a5,5,0,0,0-1.83-2.38l-.75-.58c-.36-.27-.73-.56-1-.74l-.46-.39c-.32-.28-.75-.65-1.13-1a.57.57,0,0,0-.42-.19.26.26,0,0,0-.19.1.33.33,0,0,0-.07.23.47.47,0,0,0,.21.3,3.24,3.24,0,0,1,.41.39c.24.3.23.48,0,.87s-.57.74-1.93,2.42l-1.82,2.24c-.85,1-1.65,2-2.12,2.49s-.53.43-.68.35a2.87,2.87,0,0,1-.43-.28.48.48,0,0,0-.34-.13.24.24,0,0,0-.18.1.28.28,0,0,0-.07.23.56.56,0,0,0,.23.34c.28.23.67.52,1,.76l.49.38.39.33c.36.31.87.76,1.33,1.13a.49.49,0,0,0,.38.15.28.28,0,0,0,.21-.11.26.26,0,0,0,.06-.21.42.42,0,0,0-.15-.26,6,6,0,0,1-.53-.5c-.2-.21-.18-.4.1-.81a32.71,32.71,0,0,1,2-2.6l.1-.12,1,.83c.06,0,.07.08.07.11s0,.65-.07,1.21-.07.93-.1,1.39a7.42,7.42,0,0,0,.21,3.16,3.19,3.19,0,0,0,1.14,1.33l1.12.92a.57.57,0,0,0,.35.16.31.31,0,0,0,.24-.12.33.33,0,0,0-.1-.47,3.9,3.9,0,0,1-.29-.29,3,3,0,0,1-.61-1.78c-.08-1.13-.06-2.55,0-4.36l0-.69a4.47,4.47,0,0,0,3.71-1.48,2.89,2.89,0,0,0,.56-2.47m8.06,6.45-.82-.75-.56-.51c-.15-.14-.37-.37-.61-.62l-.79-.79c-.12-.11-.4-.37-.61-.16s-.19.29.08.54a2.24,2.24,0,0,1,.33.4c.09.14.16.33-.21.76s-.64.71-2.24,2.38l-1.89,2c-1.05,1.09-1.87,2-2.37,2.36s-.5.32-.64.23a2.45,2.45,0,0,1-.41-.31c-.28-.27-.45-.15-.52-.08s-.19.29.12.58.58.54.87.8l.55.5c.12.11.29.29.49.5l1.2,1.19a.55.55,0,0,0,.36.18.29.29,0,0,0,.22-.1c.06-.06.17-.25-.1-.51a6.37,6.37,0,0,1-.5-.57c-.19-.24-.18-.41.08-.74C234.16,63,235,62.09,236,61L238,59c1.58-1.65,1.87-1.95,2.22-2.28s.57-.37.79-.23a2.52,2.52,0,0,1,.34.27.52.52,0,0,0,.31.16h0a.33.33,0,0,0,.3-.3c0-.12-.07-.23-.23-.38M251.38,67q-.19-.28-.39-.63c-.13-.22-.26-.45-.42-.69a15.12,15.12,0,0,0-1.37-1.78,6.86,6.86,0,0,0-4.54-2.6,6.33,6.33,0,0,0-6.72,6.07h0a7.68,7.68,0,0,0,2.25,5.17,8.89,8.89,0,0,0,2.15,1.87.89.89,0,0,0,.38.11.83.83,0,0,0,.38-.11,15,15,0,0,0,1.8-1.13c.29-.26.15-.46.1-.51-.19-.22-.41-.09-.59,0a2.35,2.35,0,0,1-1,.26h0c-.87,0-1.5-.51-2.33-1.46a4.55,4.55,0,0,1-1-3.16A5.34,5.34,0,0,1,242,64.59,4.94,4.94,0,0,1,245.74,63a3.8,3.8,0,0,1,2.5,1.46,4.32,4.32,0,0,1,1.29,2.83,2,2,0,0,1-.61,1.27c-.09.08-.39.34-.17.59s.5,0,.63-.07.38-.3.62-.51l.67-.56a5.89,5.89,0,0,1,.52-.38l.18-.13a.38.38,0,0,0,0-.54m3.13,14.64c-3.55,2.49-5.28.84-5.87,0-1.52-2.17-.71-5,2-6.9a5.61,5.61,0,0,1,3.2-1.23A3.22,3.22,0,0,1,256.48,75c1.46,2.07.65,4.8-2,6.64m3.13-6.91a6.24,6.24,0,1,0-10.3,7,6.36,6.36,0,0,0,5.2,2.88,6.69,6.69,0,0,0,3.88-1.3c3-2.11,3.48-5.42,1.22-8.63M265,86.92c-.16-.28-.41-.69-.63-1.06s-.35-.58-.44-.73l-.37-.7c-.19-.37-.41-.8-.61-1.15-.07-.12-.26-.45-.54-.29-.12.07-.24.22-.06.54a1.83,1.83,0,0,1,.19.43c.12.37.05.53-.37.8s-.76.46-2.76,1.58L257,87.72c-1.22.69-2.29,1.29-2.88,1.54s-.65.2-.75.08a2.2,2.2,0,0,1-.3-.42c-.18-.32-.38-.28-.48-.22a.28.28,0,0,0-.14.18.52.52,0,0,0,.09.41c.07.13.16.28.26.43s.2.32.29.48c.19.31.35.6.43.74.29.51.54,1,.88,1.65l.21.41c.28.52.59,1.11,1,1.87.3.54.47.75.78.75l.26,0a13.64,13.64,0,0,0,1.7-.69c.13-.08.24-.15.27-.27a.31.31,0,0,0,0-.22c-.1-.18-.27-.22-.52-.11a1.71,1.71,0,0,1-.89.1c-.46-.11-.73-.55-1.13-1.26-.58-1-.65-1.37-.59-1.65s1.15-.94,2.64-1.79l2.52-1.42c1.93-1.08,2.28-1.28,2.71-1.49s.65-.19.82,0a4.39,4.39,0,0,1,.32.47c.15.27.32.35.5.25a.26.26,0,0,0,.14-.18.55.55,0,0,0-.1-.42m6.2,12.31a.74.74,0,0,0-.12-.17A.17.17,0,0,1,271,99c-.08-.1-.23-.36-.34-.53s-1.4-3-1.6-3.46l-.31-.74-.06-.15-.23-.51-.27-.62c-.08-.18-.16-.31-.28-.35a.31.31,0,0,0-.23,0c-.13.06-.26.2-.11.53a3.19,3.19,0,0,1,.2.53c.08.38,0,.53-.44.76s-.79.4-2.81,1.32l-2.76,1.27c-1.22.55-2.27,1-2.86,1.22s-.66.15-.76,0a2.43,2.43,0,0,1-.26-.44.5.5,0,0,0-.24-.28.33.33,0,0,0-.22,0,.37.37,0,0,0-.16.17.56.56,0,0,0,.06.42c.06.14.14.29.22.45s.17.33.25.5.27.56.35.72l0,.06c.19.41.37.85.62,1.46l.16.38c.23.55.52,1.21.9,2,.21.46.32.71.7.71l.21,0a12.19,12.19,0,0,0,1.68-.55c.14-.06.42-.19.29-.47a.36.36,0,0,0-.49-.15c-.58.15-.88.12-1.16-.12a3.86,3.86,0,0,1-.72-1.16c-.65-1.42-.46-1.58.34-2,.28-.15,1.06-.5,1.63-.75l1.62-.74c.21.47.74,1.65.82,1.89.16.51,0,.7-.13.83a2.9,2.9,0,0,1-.33.2l-.12.06a.3.3,0,0,0-.16.43.3.3,0,0,0,.17.16.55.55,0,0,0,.4-.07l.47-.18.48-.19c.49-.18.76-.26.91-.3l.18-.06a.28.28,0,0,0,.16-.39c-.07-.14-.2-.18-.4-.24s-.23-.16-.41-.49-.8-1.67-1-2.13l3.51-1.6c.19.41.74,1.69.81,1.91.23.71.1.84,0,1a1.61,1.61,0,0,1-.41.27c-.31.15-.28.35-.23.46a.34.34,0,0,0,.43.17l.67-.24.31-.12a5.32,5.32,0,0,1,.81-.26l.17,0a.28.28,0,0,0,.17-.39M25.75,139.15c-.06-.1-.29-.13-.35-.13a.34.34,0,0,0-.29.07l0,0v0a5.5,5.5,0,0,1-.34,1.25.7.7,0,0,1-.78.41c-1.81-.22-7.11-.94-8.44-1.19-1-.22-1.22-.35-1.33-.9,0-.13,0-.28,0-.45s0-.29,0-.43v0l0,0a.44.44,0,0,0-.31-.09.39.39,0,0,0-.31.06l0,0v0c0,.13,0,.33,0,.58,0,.45,0,1-.06,1.7s-.09,1.12-.13,1.54-.05.48-.06.63v.06c.05.11.22.14.32.16a.35.35,0,0,0,.33-.07l0-.12a8.83,8.83,0,0,1,.24-1c.17-.48.51-.53,1.26-.49,1.39.1,5.77.59,7.64.84-.5.17-1.27.46-2.21.8-2.76,1-6.55,2.38-7.74,2.66H13l0,.06a1.41,1.41,0,0,0,0,.58l0,0,0,0c1.47.62,6.17,3.19,8.44,4.43l.9.49-1.14,0c-2.33-.12-5.87-.29-6.87-.37-.5-.05-.7-.18-.77-.48s-.08-.52-.13-1l0-.05a.3.3,0,0,0-.23-.11s-.29,0-.4.06l0,0v.13c0,.52,0,1.39-.09,2.4-.05.71-.11,1.31-.15,1.79,0,.3,0,.54-.07.72v.06l.06,0a.79.79,0,0,0,.56.06l0,0,0-.18c.07-.38.13-.66.2-.9.14-.48.4-.58,1.05-.59h.11c1.64,0,7.72.22,8.84.33.36,0,.59.12.66.55a7,7,0,0,1,.14,1.19v0l0,0a.59.59,0,0,0,.36.1.45.45,0,0,0,.26-.06l0,0v0c0-.35,0-.66,0-1,0-.53,0-1.2.1-2.28v-.1l-.11,0a3.66,3.66,0,0,1-1-.39l0,0c-1.7-.88-6.64-3.65-7.65-4.24,1-.42,5.34-2.17,8.07-3.18a4.32,4.32,0,0,1,1.13-.3h.1v-.11c.07-1.27.15-2.06.2-2.65,0-.32.05-.57.07-.8v0ZM23,159.61c0-.16,0-.35,0-.59s-.06-.78-.07-1.29,0-1,0-1.42v-.68l-.06,0c-.06,0-.41-.1-.51,0l0,0v0a4.28,4.28,0,0,1-.13.91c-.06.25-.22.28-.6.34h0c-.78.05-2,.08-3.19.12-1.73.05-3.81.09-4.28.07s-.55-.08-.64-.44a4.51,4.51,0,0,1-.13-.74v0l0,0c-.1-.09-.33-.06-.34-.06a.29.29,0,0,0-.21.09l0,0v0c0,.29,0,.57.05.88s0,.77.06,1.28,0,.86,0,1.24,0,.51,0,.69v0l0,0a.58.58,0,0,0,.33.08h.05a.21.21,0,0,0,.17-.08l0,0v0c0-.29.08-.65.12-.88s.28-.42.75-.45,2.11-.1,3.76-.14h.24c1.31,0,2.67-.07,3.27-.06s.65.08.74.33.09.44.14.75v0l0,0a.59.59,0,0,0,.52,0l0,0Zm1,12.32c0-.07,0-.22-.06-.41-.05-.36-.12-.85-.15-1.19-.05-.52-.08-1-.1-1.35s0-.49-.05-.66v0l0,0a.48.48,0,0,0-.31-.05c-.17,0-.22.06-.23.08l0,0v0a6.09,6.09,0,0,1-.07,1c-.07.41-.27.51-.71.59-.88.16-3.16.38-5.17.58l-1.14.11c1.09-1.11,4.56-4.59,6.35-6.33a4.13,4.13,0,0,1,.78-.66l.08,0,0-.09c0-.12-.05-.4-.09-.72S23,162,23,161.61s0-.5-.05-.65v-.05l0,0a.46.46,0,0,0-.32,0c-.15,0-.2,0-.22.08l0,0v0a2.14,2.14,0,0,1-.24,1.25.87.87,0,0,1-.66.42c-3.51.31-6.17.51-6.9.54s-.84-.17-.94-.46a2.64,2.64,0,0,1-.21-.73v0l0,0a.25.25,0,0,0-.21-.06s-.27,0-.34.1l0,0v.05c0,.13,0,.3.07.5s.1.74.16,1.28.08,1,.1,1.35,0,.43,0,.58v.05l0,0a.64.64,0,0,0,.38,0,.26.26,0,0,0,.17-.1v-.29a5.79,5.79,0,0,1,.05-.68c.06-.31.15-.53.85-.65s4.47-.48,6.21-.63c-5.09,5-6.74,6.53-7.23,6.94l-.06.05,0,.06c0,.18.1.83.1,1v.13l.13,0L16,171.5l2.59-.22c1.62-.15,3-.27,3.85-.29.41,0,.66,0,.8.39a5.12,5.12,0,0,1,.21.63v0l0,0a.35.35,0,0,0,.21.05h.13c.1,0,.17-.05.2-.11l0,0ZM25,177c0-.15-.06-.33-.11-.55s-.17-.78-.25-1.29-.16-1-.21-1.4c0-.26-.07-.47-.09-.61v-.06l-.06,0c-.07,0-.43,0-.51.09l0,0v0a5.22,5.22,0,0,1,0,.92c0,.26-.17.31-.53.42l-.05,0c-.73.15-1.81.34-3.07.56H20c-1.71.29-3.76.63-4.23.68s-.55,0-.69-.35a5.8,5.8,0,0,1-.24-.71v0l0,0c-.11-.07-.34,0-.35,0a.25.25,0,0,0-.19.12l0,0v0c.05.29.11.57.17.87s.16.75.24,1.26.14.88.19,1.24.06.49.09.66v0l0,0a.59.59,0,0,0,.39,0,.17.17,0,0,0,.15-.1l0,0v0c0-.42,0-.69,0-.88,0-.36.21-.46.68-.56s2.15-.4,3.69-.66,2.83-.49,3.47-.57.65,0,.78.23.15.42.24.72v0l.05,0a.6.6,0,0,0,.5-.11l0,0Zm1.63,7.53c0-.22,0-.44-.06-.67a9.84,9.84,0,0,0-.22-1.72,3.58,3.58,0,0,0-1.24-2,2.6,2.6,0,0,0-2.25-.46c-1.39.32-2,1.4-2.53,3s-.9,2.3-1.85,2.52a1.56,1.56,0,0,1-1.32-.21,1.68,1.68,0,0,1-.63-1,2.58,2.58,0,0,1,.05-1.57,3.19,3.19,0,0,1,1.65-1.5l.05,0v-.05a.61.61,0,0,0-.28-.51H18a12.69,12.69,0,0,0-2.23,1l0,0a5.52,5.52,0,0,0,0,2.37,3.35,3.35,0,0,0,3.12,2.92,3.4,3.4,0,0,0,.69-.08,2.92,2.92,0,0,0,2.07-2.14c.09-.25.17-.53.26-.83s.25-.87.41-1.28a2,2,0,0,1,1.49-1.4,1.52,1.52,0,0,1,1.88,1.2,2.19,2.19,0,0,1,0,1.25c-.13.41-.49.64-1.43.94h0l0,0a.53.53,0,0,0,0,.33.36.36,0,0,0,.15.21h.06a18.38,18.38,0,0,1,2.17-.22h.13Zm3.19,10.17,0,0a3.66,3.66,0,0,1-.62-1.33l-1.76-5.7a3.21,3.21,0,0,1-.16-1.22.2.2,0,0,0,0-.17c-.07-.08-.12-.11-.19-.1-.64.17-1.86.39-2.52.48l-.05,0a.23.23,0,0,0-.09.18s0,.32.1.41l0,0h0a9.85,9.85,0,0,1,1.56.15.65.65,0,0,1,.51.44c.18.45.58,1.75.65,2l-.25.08c-2.56.79-6.06,1.87-7,2.12-.76.2-1,.17-1.16-.17a10.78,10.78,0,0,1-.45-1l0,0,0,0a.48.48,0,0,0-.5.17l0,0v.05l.21.62c.15.43.33,1,.54,1.63.13.44.26.91.38,1.33s.17.61.23.81l0,.05a.21.21,0,0,0,.17.06h0s.26,0,.34-.13l0,0v-.05a6.34,6.34,0,0,1-.14-.93c0-.3,0-.46.7-.7s5.29-1.7,7.36-2.34c.14.39.51,1.53.65,2.17a.51.51,0,0,1-.2.61,6.23,6.23,0,0,1-1.22.62l0,0s-.09.09,0,.34.17.26.2.26h0a15.85,15.85,0,0,1,2.53-.42h.07l0,0a.27.27,0,0,0,0-.26m3,7.9c-.15-.29-.47-1-.7-1.61l-1.16-2.91c-.2-.5-.36-.95-.49-1.31s-.15-.42-.21-.56v0l0,0a.39.39,0,0,0-.3,0,.36.36,0,0,0-.22.16v.08a4.9,4.9,0,0,1,.16.78c0,.31,0,.39-.54.64-.25.13-1.6.68-2.91,1.2l-.28.11c-1.57.63-3.19,1.28-3.51,1.37-.59.2-.73.11-.89-.13a5.55,5.55,0,0,1-.46-.78l-.12-.23h0a.51.51,0,0,0-.5.19l0,0v.05c.11.27.23.54.36.84s.36.81.58,1.36c.41,1,.68,1.75.92,2.4.18.5.34.94.53,1.41.31.76.41.85.68.89H24a13,13,0,0,0,1.95-.18H26l0-.05a.67.67,0,0,0,0-.52l0,0h-.05a5.17,5.17,0,0,1-1.63-.25c-.35-.11-.55-.21-.86-.95a18.31,18.31,0,0,1-.72-2.05c0-.12.07-.31.35-.44.77-.34,2.51-1,3.09-1.27h0c.23.54.74,1.84.86,2.24a.49.49,0,0,1-.21.62,1.7,1.7,0,0,1-.26.18l-.25.16,0,0a.25.25,0,0,0,0,.23.54.54,0,0,0,.23.34l0,0h.05l.46-.2c.24-.11.51-.23.84-.36a10.38,10.38,0,0,1,1.41-.44l.06,0,0,0a.67.67,0,0,0-.16-.54l0,0h-.06a4.44,4.44,0,0,1-.61.08.52.52,0,0,1-.6-.33c-.23-.43-.73-1.68-.93-2.23h0c.5-.2,2.54-1,3.31-1.29.05,0,.16,0,.18,0s.76,1.86.89,2.23a.69.69,0,0,1-.22.87,6.16,6.16,0,0,1-.87.53l0,0,0,.05a.63.63,0,0,0,.25.49l0,0h0a13.24,13.24,0,0,1,2.11-.55.26.26,0,0,0,.11-.12l0-.07Zm.65,8.44a1.76,1.76,0,0,1-2.09-.1,5.62,5.62,0,0,1-.95-1.67c1.47-.73,3.21-1.58,3.65-1.77h.13a2.57,2.57,0,0,1,.26.41,2.09,2.09,0,0,1-1,3.14m2.09-2.51-.43-.86-.73-1.46c-.11-.23-.27-.57-.41-.89s-.25-.57-.33-.73l0,0a.23.23,0,0,0-.19,0,.51.51,0,0,0-.33.19l0,0v.05a5.83,5.83,0,0,1,.26.77c.07.32,0,.47-.38.67s-2.24,1.14-3.4,1.71c-.77.38-2.82,1.36-3.22,1.54s-.69.2-.88-.05a5.69,5.69,0,0,1-.39-.53l-.09-.13,0,0a.35.35,0,0,0-.3,0c-.08,0-.18.11-.2.2v.07l.21.39c.16.3.41.75.72,1.37s.48,1,.65,1.4l.2.45,0,0,0,0a.38.38,0,0,0,.29,0,.37.37,0,0,0,.22-.17v-.07c-.13-.37-.2-.64-.26-.84s0-.4.47-.67,1.76-.9,2.67-1.35l.1.18a8,8,0,0,1,.36.74.39.39,0,0,1-.06.35c-.18.33-.43.75-.69,1.2a21.36,21.36,0,0,0-1.27,2.3,2.44,2.44,0,0,0-.24,1,7,7,0,0,0,.86,2.43l0,0a.21.21,0,0,0,.11,0,.54.54,0,0,0,.19,0c.21-.07.23-.13.24-.16v-.08a2.15,2.15,0,0,1,0-1.9,25.86,25.86,0,0,1,2-3.92,2.88,2.88,0,0,0,3.2.5,2.47,2.47,0,0,0,1.31-1.48,3.16,3.16,0,0,0-.31-2.3m6.19,11.07c-.19-.25-.62-.94-.93-1.47l-1.61-2.69c-.27-.46-.49-.87-.67-1.2l-.31-.55,0,0,0,0a.42.42,0,0,0-.29.05.32.32,0,0,0-.19.19v0l0,0a5.44,5.44,0,0,1,.27.74c.1.3.07.38-.43.71-.22.18-1.49.93-2.77,1.69l-.14.09c-1.47.87-3,1.77-3.28,1.91-.56.29-.71.23-.9,0a5.75,5.75,0,0,1-.6-.74l-.13-.17h0a.42.42,0,0,0-.27.07.51.51,0,0,0-.2.21v.05l0,0,.48.77c.23.35.48.75.78,1.25.57,1,1,1.65,1.3,2.25s.48.87.74,1.3c.38.65.51.76.76.76h0a10.44,10.44,0,0,0,2.23-.52l0,0,0-.05a.69.69,0,0,0-.09-.51l0,0h0a5.36,5.36,0,0,1-1.65,0c-.36-.06-.57-.12-1-.8a17.93,17.93,0,0,1-1-1.91c0-.12,0-.33.27-.5.72-.46,2.34-1.43,2.87-1.74,0,0,0,0,0,0,.32.5,1,1.69,1.2,2.08a.48.48,0,0,1-.11.64,1.75,1.75,0,0,1-.24.23l-.21.19,0,0a.27.27,0,0,0,0,.23c.05.1.16.27.28.3h0l0,0,.44-.27.76-.48a11.3,11.3,0,0,1,1.32-.66l0,0,0,0a.65.65,0,0,0-.25-.51l0,0-.05,0a5.39,5.39,0,0,1-.59.17.53.53,0,0,1-.65-.23c-.29-.4-1-1.56-1.27-2.06h0l3.07-1.79a.28.28,0,0,1,.17,0c.14.17,1.05,1.73,1.24,2.08a.68.68,0,0,1-.09.89,5.52,5.52,0,0,1-.77.65l0,0v.05c0,.12.18.42.33.45h0l0,0a14.64,14.64,0,0,1,2-.87s.07-.08.09-.11l0-.09Zm5.93,10.79a4.29,4.29,0,0,1-1.94,3.69,4.61,4.61,0,0,1-3.52,1.15,3,3,0,0,1-2-1.29,3.42,3.42,0,0,1-.8-1.58h0a.69.69,0,0,1,.26-.53c.32-.28,1.71-1.37,2.88-2.25l.24-.19c1.12-.84,2.64-2,3-2.2a.29.29,0,0,1,.17-.06h0a4.19,4.19,0,0,1,.55.59,5,5,0,0,1,1.19,2.66m.14-2.09c-.45-.59-.79-1-1.1-1.4s-.52-.65-.8-1-.92-1.26-1.11-1.54l0,0h-.05a.62.62,0,0,0-.46.27v.05l0,0a4.36,4.36,0,0,1,.38.74c.13.29.1.42-.3.78s-1.89,1.48-2.66,2.07l-.16.11c-1.15.88-2.24,1.71-3,2.24-.46.29-.63.22-.81.08a6.59,6.59,0,0,1-.57-.54L37,230l0,0c-.06,0-.14,0-.24,0s-.22.15-.22.28v.05l0,0L37,231l.1.14,1,1.41c.33.46.61.86.92,1.26a6.32,6.32,0,0,0,3.18,2.39,5,5,0,0,0,1.53.25A5.17,5.17,0,0,0,47,235.29,4.83,4.83,0,0,0,49,231.77a5.17,5.17,0,0,0-1.23-3.48m8.82,10.44c-.23-.2-.78-.79-1.21-1.27l-2.1-2.32c-.36-.4-.66-.77-.91-1.06l-.39-.46,0,0h0a.39.39,0,0,0-.28.11.31.31,0,0,0-.14.22v0l0,.06a5,5,0,0,1,.4.65c.15.28.14.37-.28.79-.2.23-1.47,1.37-2.39,2.2-1.14,1-2.69,2.42-3,2.64-.49.39-.65.35-.88.19a7.31,7.31,0,0,1-.71-.59l-.18-.16h-.05a.48.48,0,0,0-.39.36v0l0,0c.19.22.4.43.63.67s.61.64,1,1.07c.74.82,1.25,1.41,1.69,1.94l1,1.14c.43.48.61.61.8.61a.36.36,0,0,0,.14,0,9.35,9.35,0,0,0,2.09-1l0,0v-.05a.76.76,0,0,0-.18-.49l-.05,0h0a5.43,5.43,0,0,1-1.62.34c-.36,0-.58,0-1.13-.6a19.37,19.37,0,0,1-1.39-1.67.5.5,0,0,1,.18-.54c.54-.53,1.72-1.6,2.29-2.11l.18-.17h0c.41.42,1.34,1.45,1.59,1.8a.5.5,0,0,1,0,.65,2.22,2.22,0,0,1-.19.27l-.18.23v0a.27.27,0,0,0,0,.22c.07.09.21.24.34.24h0l0,0c.12-.1.25-.23.4-.38s.38-.37.63-.59a12.58,12.58,0,0,1,1.17-.9l0,0v-.06a.69.69,0,0,0-.34-.45h-.05l0,0a5.09,5.09,0,0,1-.55.29.52.52,0,0,1-.68-.1c-.37-.34-1.29-1.35-1.65-1.78h0c.39-.35,2-1.81,2.66-2.35,0,0,.15-.07.17-.05s1.38,1.51,1.61,1.79A.65.65,0,0,1,55,239a5.84,5.84,0,0,1-.62.8l0,0v0a.63.63,0,0,0,.4.38h0l0,0A15,15,0,0,1,56.57,239a.18.18,0,0,0,.07-.14v-.08Zm6.9,6.67,0,0c-.23-.18-.7-.57-1.45-1.25-.46-.41-.77-.71-1-1s-.29-.3-.42-.41l0,0h0s-.1,0-.25.13-.15.22-.15.24v.06l0,0c.16.19.4.47.51.63s.19.41-.24.94c-.26.31-.91,1-2,2.28-1.87,2.08-2.61,2.84-2.9,3.12s-.46.28-.7.16-.33-.21-.55-.36l-.25-.19,0,0h0a.41.41,0,0,0-.23.15.43.43,0,0,0-.13.25v0l0,0c.11.1.31.28.56.48l1.07.94c.29.25.89.82,1.53,1.42s1.41,1.32,1.79,1.66a1,1,0,0,0,.62.34l.11,0a12.75,12.75,0,0,0,2.37-1.39l0,0v0c.06-.15-.13-.44-.26-.49l0,0,0,0a8.76,8.76,0,0,1-1.86.64,1,1,0,0,1-1-.2,12.37,12.37,0,0,1-1.89-1.85.41.41,0,0,1,.1-.41c.44-.57,1.54-1.78,2.69-3.06.41-.43.82-.89,1.19-1.29.54-.59,1-1.09,1.21-1.3s.37-.36.64-.21a6.05,6.05,0,0,1,.64.41l0,0h0a.32.32,0,0,0,.26-.15.38.38,0,0,0,.12-.27Zm4.35,2.74a1.63,1.63,0,0,0-1.19,0,.32.32,0,0,0-.15.18.24.24,0,0,0,0,.17h0c.23.36.27.71.11.91-.33.39-.87.49-1.65.29h-.07c-.11,0-.16.29-.17.34a.21.21,0,0,0,.05.17h0a3.17,3.17,0,0,0,1.23.24,2.26,2.26,0,0,0,1.79-.73,1.08,1.08,0,0,0,0-1.56m3.9,9.43h0c-.18-.11-.64-.45-1-.7l-.07-.05c-.62-.45-1-.75-1.21-.9h0c.8-.58,2.71-1.9,3.57-2.49C72.75,254.45,72.12,256.42,71.75,257.57Zm3.56-5.35-.13-.08-.38-.26c-.18-.13-.31-.24-.39-.31l-.09-.07-.09-.06-.07.07a6.39,6.39,0,0,1-.84.68c-1,.71-5.5,3.72-7.91,5.17-1.32.79-1.55.76-2.72.11l0,0h0a.66.66,0,0,0-.37.5V258l0,0,.45.3c.29.19.69.45,1.19.82s.94.71,1.31,1l.59.45,0,0h.05a.77.77,0,0,0,.4-.45v-.05l-.07-.07c-.26-.26-.45-.45-.6-.62-.36-.45-.22-.6,0-.8a27.47,27.47,0,0,1,2.87-2,.2.2,0,0,1,.11,0c.17.1.33.21,1.19.84l.13.09c.76.56,1.21.89,1.41,1.06l0,.08-.08.29c-.31,1-.77,2.58-1,3.3-.07.2-.13.26-.35.21a5.12,5.12,0,0,1-.91-.41l0,0h0c-.16,0-.37.37-.37.47v.07l0,0c.43.28,1.35.91,2,1.39s1.3,1,1.73,1.33l.14.12h0a.56.56,0,0,0,.26-.18c.16-.18.14-.27.14-.29v-.05l0,0c-1-.92-1-1-.7-2.35.3-1.16,1.41-4.76,2.15-7.14.31-1,.56-1.79.66-2.13s.25-.72.34-.94l0-.08Zm11.75,10.11c-.26-.19-.51-.4-.78-.62a11.17,11.17,0,0,0-1.71-1.26,7.25,7.25,0,0,0-3-1.08,4.87,4.87,0,0,0-4.87,2.54c-1.8,3.06-1,5.7,2.24,7.63A13.52,13.52,0,0,0,82,270.73l.24.07,0,0a1.1,1.1,0,0,0,.25-.28l0-.07,0-.07c-.19-.22-.18-.25-.1-.44s.64-1.11.91-1.55.43-.52.65-.47a4.43,4.43,0,0,1,.49.16l0,0h0a.33.33,0,0,0,.21-.16.53.53,0,0,0,.11-.31l0-.05,0,0a14.73,14.73,0,0,1-1.43-.79c-.42-.24-.8-.48-1.14-.7l-.71-.45h-.07c-.12,0-.22.16-.26.22a.32.32,0,0,0,0,.27v0l.22.16a6.19,6.19,0,0,1,.55.44c.32.28.33.44.08.92a14,14,0,0,1-.9,1.47c-.2.27-.39.38-.61.36a2.57,2.57,0,0,1-1-.39,3.93,3.93,0,0,1-2-2.8,5.43,5.43,0,0,1,.83-3.54,5.09,5.09,0,0,1,2.43-2.3,3.29,3.29,0,0,1,3,.37,4,4,0,0,1,1.61,1.47c.25.45.19.9-.29,1.94v.08c0,.11.17.18.25.22a.4.4,0,0,0,.32,0h0l0,0a17,17,0,0,1,1.47-2l.09-.09Zm5.74,6.07a1.75,1.75,0,0,1-1.7,1.22,5.73,5.73,0,0,1-1.78-.73c.58-1.21,1.53-3.2,1.78-3.64a.26.26,0,0,1,.09-.09,1.57,1.57,0,0,1,.46.16,2.06,2.06,0,0,1,1.15,3.08m1.79-1.57a3.14,3.14,0,0,0-1.69-1.7L92,264.7,90.55,264l-.87-.44-.71-.37h0a.21.21,0,0,0-.17.1.55.55,0,0,0-.14.36v.05l0,0a7.61,7.61,0,0,1,.69.45c.25.2.27.37.11.75-.23.56-1.17,2.51-1.62,3.45s-1.39,2.83-1.58,3.19c-.27.53-.42.59-.72.52a4.8,4.8,0,0,1-.59-.17l-.2-.06h0c-.09,0-.16.12-.2.21a.37.37,0,0,0,0,.29l0,0,0,0,.41.18c.32.14.79.34,1.41.63s1,.51,1.37.7l.44.23h.07c.08,0,.15-.07.22-.19a.41.41,0,0,0,.06-.28v0l0,0c-.26-.17-.48-.32-.72-.5s-.29-.27,0-.81.82-1.8,1.26-2.72l.2.09a7.33,7.33,0,0,1,.73.35.4.4,0,0,1,.17.32c.06.36.13.85.19,1.36a21,21,0,0,0,.43,2.59,2.27,2.27,0,0,0,.43.94,6.93,6.93,0,0,0,2.18,1.38h0c.05,0,.12,0,.23-.18s.11-.26.1-.29l0,0,0,0a2.14,2.14,0,0,1-1.18-1.49,25.65,25.65,0,0,1-.83-4.33h.07a2.83,2.83,0,0,0,2.75-1.59,2.42,2.42,0,0,0,.15-1.89m7.32,2.2,0,0,0,0c-.13-.06-.3-.11-.5-.19s-.76-.27-1.26-.47l-1.32-.56-.55-.24,0,0,0,0c-.08.05-.26.35-.2.48v0l0,0a4.86,4.86,0,0,1,.78.48c.21.16.18.32.08.68v.05c-.24.68-.64,1.67-1.1,2.81l-.06.17c-.65,1.61-1.44,3.53-1.64,3.95s-.3.47-.66.41a4.24,4.24,0,0,1-.73-.17h-.08a.57.57,0,0,0-.2.29.26.26,0,0,0,0,.23l0,0,0,0,.84.31c.34.12.72.26,1.19.45s.82.34,1.14.49l.63.27,0,0,.05,0a.68.68,0,0,0,.23-.32.22.22,0,0,0,0-.18l0,0,0,0-.76-.45c-.29-.23-.28-.42-.12-.87s.73-1.91,1.32-3.38l0-.12c.5-1.25,1.07-2.66,1.34-3.25s.33-.56.6-.55.52.11.74.18h0l0,0a.57.57,0,0,0,.18-.48m10.22,3.51c-.23-.1-.49-.22-.78-.37a15.52,15.52,0,0,0-2.1-.9,6.69,6.69,0,0,0-3.4-.31,5,5,0,0,0-3.88,3.5c-1.06,3.28.29,5.8,3.72,6.91a8.09,8.09,0,0,0,2.39.4h.09a5.13,5.13,0,0,0,1.89-1.74l0,0a.3.3,0,0,0-.09-.23.47.47,0,0,0-.27-.19h0l0,0a6.63,6.63,0,0,1-1.52,1.09,2.75,2.75,0,0,1-1.85,0,4,4,0,0,1-2.56-2.24,5.15,5.15,0,0,1,0-3.55c.85-2.62,2.64-3.77,4.79-3.08a4.49,4.49,0,0,1,1.76.95h0c.4.39.5.75.27,2a.18.18,0,0,0,.06.17.67.67,0,0,0,.52.06l0,0v0a17.24,17.24,0,0,1,1-2.19l.07-.12Zm11.8,2.71,0,0h0l-.41-.08-1.18-.24-1.33-.32-.44-.11h-.05l0,0a.47.47,0,0,0-.14.27.33.33,0,0,0,0,.24l0,0h0l.7.29c.39.18.55.34.38,1.15-.28,1.58-.74,3.45-1.09,4.68-.68,2.44-2.09,2.46-3.24,2.2a2.64,2.64,0,0,1-2.21-1.91,4,4,0,0,1,0-1.86c.16-.86.68-3.26,1-4.63.16-.57.28-.63.54-.64a1.77,1.77,0,0,1,.4,0h.34l0,0s.09-.05.13-.23,0-.24,0-.29l0,0h0l-.62-.12-1.19-.24-1.34-.33-.57-.14h-.07a.32.32,0,0,0-.15.24.3.3,0,0,0,0,.29l0,0h0a4.75,4.75,0,0,1,.74.3c.25.15.26.37.19.78,0,.25-.15.67-.26,1.18-.35,1.56-.88,3.92-.95,4.69-.19,2,.88,3.3,3.2,3.82a5.63,5.63,0,0,0,1.25.15,3.35,3.35,0,0,0,3.3-2.27,20.21,20.21,0,0,0,1-3.57c.13-.51.27-1.09.44-1.77.22-.84.37-1,.72-1,.17,0,.38,0,.65,0h0s.11,0,.15-.24,0-.27,0-.29m8,8.43a.29.29,0,0,0-.17-.18.59.59,0,0,0-.33-.09h0l0,.05a8.94,8.94,0,0,1-1.18,1.57,1,1,0,0,1-.91.38,12.44,12.44,0,0,1-2.6-.47.42.42,0,0,1-.16-.39c.06-.73.28-2.34.52-4,.09-.6.18-1.22.26-1.77.11-.77.2-1.43.26-1.73s.11-.5.42-.53a5.23,5.23,0,0,1,.75,0h0l0,0a.47.47,0,0,0,.08-.55l0,0h-.12c-.35,0-.93-.09-1.83-.21l-1.37-.22c-.23,0-.41-.08-.59-.1h0l0,0s-.09.05-.14.26,0,.26,0,.28l0,0,.18,0c.22.06.5.14.65.2.36.13.4.23.33.91,0,.39-.16,1.27-.38,2.88l0,.16c-.38,2.76-.56,3.81-.65,4.21s-.22.48-.49.52-.4,0-.67,0h-.33l0,0a.37.37,0,0,0-.11.26c0,.2,0,.25,0,.27l0,0h0l.78.09c.43,0,1,.1,1.37.16l2,.31,2.44.37.32,0a.57.57,0,0,0,.47-.17,12.13,12.13,0,0,0,1.17-2.49v-.06Zm10-6.66a.29.29,0,0,0-.23-.14h0a3.6,3.6,0,0,1-1.47.1l-5.95-.41a3,3,0,0,1-1.19-.29.23.23,0,0,0-.18,0,.22.22,0,0,0-.16.14c-.08.67-.31,1.88-.46,2.53V279c0,.08.09.12.15.15s.28.12.4.05l0,0v0a8.3,8.3,0,0,1,.7-1.4.63.63,0,0,1,.6-.33c.49,0,1.84.1,2.11.13v.1c-.17,2.58-.44,6.46-.54,7.45-.09.77-.19,1-.58,1-.2,0-.56.05-1.09.07h0l0,0a.53.53,0,0,0,0,.53l0,0h0l.62,0c.44,0,1,0,1.75.09.46,0,.94.08,1.37.12l.85.08h.06a.26.26,0,0,0,.12-.17.54.54,0,0,0,0-.37l0,0h0a6.56,6.56,0,0,1-.92-.2c-.28-.11-.43-.2-.41-.91s.29-5.15.47-7.71c.4,0,1.61.08,2.26.17a.53.53,0,0,1,.5.41,5.65,5.65,0,0,1,.14,1.35v.05s.05.12.31.13.3-.06.32-.09v0a15,15,0,0,1,.53-2.53V277Zm11.73-.08,0,0h0l-.52,0-1.1,0h-1.88l0,0a.53.53,0,0,0,0,.52l0,0h0c.34.05.53.07.75.12.42.07.6.19.64,1,.11,1.59.1,3.52.06,4.8-.09,2.54-1.45,2.89-2.63,2.91h-.08a2.61,2.61,0,0,1-2.52-1.33,4,4,0,0,1-.43-1.81c0-.8-.11-3.24-.1-4.73,0-.6.12-.68.37-.76l.4-.1.3-.06h0l0,0a.4.4,0,0,0,.06-.28.37.37,0,0,0-.08-.26l0,0h0l-.62,0-1.22.05h-2l0,0c-.07.05-.08.18-.08.28a.34.34,0,0,0,.09.27l.06,0a5.5,5.5,0,0,1,.79.12c.25.08.34.25.36.71,0,.26,0,.7,0,1.23,0,1.59.09,4,.2,4.76.28,2,1.59,3,3.87,3h.15c1.57,0,3.52-.6,3.92-3.14a21.66,21.66,0,0,0,.16-3.73c0-.53,0-1.12,0-1.82,0-.87.12-1,.45-1.13.17-.05.38-.1.64-.15l0,0s.09-.06.09-.28-.07-.26-.1-.27m6.17,4.18a5.65,5.65,0,0,1-1.9.31c-.16-1.5-.37-3.54-.4-4a1.11,1.11,0,0,1,0-.13,3.71,3.71,0,0,1,.48-.1,2.47,2.47,0,0,1,1.84.41,2.29,2.29,0,0,1,.76,1.62,1.75,1.75,0,0,1-.81,1.92m5.64,4.25,0,0h0a2.17,2.17,0,0,1-1.79-.66,26.23,26.23,0,0,1-3-3.25,2.87,2.87,0,0,0,1.58-2.83,2.44,2.44,0,0,0-.94-1.74,3.17,3.17,0,0,0-2.26-.51l-1,.12-1.55.17-1,.08-.76.06,0,0a.26.26,0,0,0-.1.18.54.54,0,0,0,.08.37l0,0h.05c.3,0,.59,0,.81,0s.43.18.49.59.28,2.3.43,3.78c.1.87.3,3.13.33,3.55,0,.58-.05.72-.34.82a5,5,0,0,1-.57.15l-.19.05-.05,0a.32.32,0,0,0-.07.28.39.39,0,0,0,.12.28l0,0h0l.38,0c.34-.05.86-.13,1.59-.2.57-.06,1.1-.1,1.49-.13l.54,0h0l0,0c.06-.05.08-.14.08-.28a.37.37,0,0,0-.09-.27l0,0h0c-.35,0-.62,0-.87-.06s-.39-.1-.47-.67-.22-1.84-.32-2.7l0-.27.24,0c.24,0,.58-.08.75-.08h0a.4.4,0,0,1,.31.18c.24.28.55.65.87,1.05a22.24,22.24,0,0,0,1.73,2,2.3,2.3,0,0,0,.86.58,7,7,0,0,0,2.58,0l0,0s.1-.08.1-.27,0-.28-.06-.3m8.45-3.6,0,0a.7.7,0,0,0-.51-.09l-.05,0v.05a5.17,5.17,0,0,1-.56,1.55c-.18.32-.31.5-1.1.66a19.37,19.37,0,0,1-2.14.3h0c-.13,0-.3-.12-.37-.42-.18-.82-.51-2.59-.64-3.26v-.07c.53-.11,1.91-.37,2.36-.4a.48.48,0,0,1,.57.32,2.08,2.08,0,0,1,.13.3c0,.07.06.16.1.27l0,0a.26.26,0,0,0,.22.07.59.59,0,0,0,.38-.16l0,0v-.05c0-.15-.07-.32-.11-.51s-.12-.54-.18-.88a9.78,9.78,0,0,1-.16-1.46v-.06l-.05,0a.68.68,0,0,0-.57.05l0,0V278a3.91,3.91,0,0,1,0,.61.53.53,0,0,1-.44.53c-.48.14-1.81.39-2.38.48v0c-.11-.56-.49-2.72-.62-3.5,0-.05,0-.15.05-.16.19-.07,2-.39,2.37-.45s.63.09.8.39a6.17,6.17,0,0,1,.36,1v.06l.05,0a.66.66,0,0,0,.54-.15l0,0v0a14.43,14.43,0,0,1-.13-2.16h0v0a.19.19,0,0,0-.21-.14c-.3.08-1.1.25-1.71.37l-3.08.57c-.52.1-1,.16-1.35.22l-.63.1h0l0,0a.37.37,0,0,0-.06.29.39.39,0,0,0,.11.25l0,0h.07a6.5,6.5,0,0,1,.77,0c.32,0,.38.07.53.66.08.28.37,1.82.62,3.18.31,1.67.67,3.56.7,3.91.08.62,0,.74-.3.85a5.23,5.23,0,0,1-.88.3l-.22.07,0,0a.53.53,0,0,0,.1.53l0,0h.05l.94-.2,1.4-.29c1.08-.2,1.85-.32,2.53-.43l1.5-.25c.79-.15.91-.23,1-.49a10.86,10.86,0,0,0,.28-2.28Zm12.93-3.5v0l0,0a.7.7,0,0,0-.53-.05l0,0v.06a5.17,5.17,0,0,1-.4,1.6c-.15.34-.26.52-1,.77a19.19,19.19,0,0,1-2.1.52h0c-.14,0-.32-.1-.41-.39-.25-.74-.73-2.33-1-3.2v0c.54-.18,1.89-.58,2.31-.65a.48.48,0,0,1,.6.26,1.87,1.87,0,0,1,.16.28c0,.07.07.15.13.26l0,0a.28.28,0,0,0,.23,0,.52.52,0,0,0,.36-.19l0,0v-.05c0-.15-.1-.32-.17-.51s-.17-.51-.27-.84a11.33,11.33,0,0,1-.31-1.44v-.06l-.05,0a.68.68,0,0,0-.55.11l0,0v0c0,.2,0,.43,0,.62a.53.53,0,0,1-.39.57c-.46.18-1.75.57-2.31.72h0c-.16-.54-.77-2.64-1-3.42a.22.22,0,0,1,0-.17c.2-.09,2-.6,2.32-.69s.64,0,.84.31a5.77,5.77,0,0,1,.45.9l0,0,.05,0a.63.63,0,0,0,.52-.2l0,0v0a14.14,14.14,0,0,1-.35-2.16.21.21,0,0,0-.22-.13c-.3.12-1.06.37-1.67.54l-3,.9-1.32.35-.62.17h0l0,0a.41.41,0,0,0,0,.29c0,.12.07.2.13.23l0,0h.07a5.17,5.17,0,0,1,.76-.08h0c.31,0,.39,0,.59.59.11.26.52,1.64.91,3l.06.2c.5,1.68,1,3.42,1.08,3.75.14.61,0,.74-.21.88a6.3,6.3,0,0,1-.85.4l-.21.08,0,0a.53.53,0,0,0,.15.52l.05,0h0l.87-.28c.39-.13.84-.28,1.41-.45,1.07-.32,1.83-.52,2.5-.7l1.44-.4c.78-.23.88-.33.94-.59a10.39,10.39,0,0,0,0-2.3m8.3-1,0,0H195a8,8,0,0,1-.92.2c-.3,0-.47,0-.75-.66s-2.05-5.17-2.82-7.19c.38-.16,1.51-.61,2.13-.8a.51.51,0,0,1,.62.17,6,6,0,0,1,.7,1.17l0,0s.09.09.34,0,.24-.17.24-.22v0a15.25,15.25,0,0,1-.58-2.52v-.05l0,0a.26.26,0,0,0-.27,0l0,0a4,4,0,0,1-1.29.71l-5.57,2.12a3.25,3.25,0,0,1-1.21.24.18.18,0,0,0-.18.07c-.07.07-.09.13-.07.18.2.63.51,1.83.64,2.49l0,0a.18.18,0,0,0,.19.07s.32,0,.4-.12l0,0v0a8.91,8.91,0,0,1,0-1.57.66.66,0,0,1,.41-.54c.44-.2,1.73-.69,2-.77l.07.17c.91,2.39,2.28,6,2.6,6.91.24.74.23,1-.1,1.16-.17.11-.48.28-1,.52l0,0v0a.49.49,0,0,0,.2.48l0,0h0l.63-.27,1.57-.63c.42-.16.88-.32,1.29-.46l.8-.29,0,0a.22.22,0,0,0,0-.21s0-.25-.15-.33m13.53-7.5a3.06,3.06,0,0,1-1.61,1.8,3.53,3.53,0,0,1-1.69.52h0a.67.67,0,0,1-.48-.33c-.23-.37-1.07-1.93-1.74-3.22l-.05-.09c-.65-1.23-1.62-3.09-1.78-3.46a.32.32,0,0,1,0-.23,4.24,4.24,0,0,1,.68-.44,5.53,5.53,0,0,1,2.5-.76l.32,0a4.3,4.3,0,0,1,3.32,2.53,4.63,4.63,0,0,1,.56,3.66m.85-4.7a4.83,4.83,0,0,0-3.13-2.61,5.19,5.19,0,0,0-3.64.64c-.66.35-1.14.62-1.57.86l-1.13.62c-.39.2-1.37.69-1.71.84l0,0,0,.05a.63.63,0,0,0,.18.49l.05,0,.06,0a3.42,3.42,0,0,1,.79-.26c.31-.08.43,0,.72.43s.79,1.41,1.63,3c.73,1.38,1.36,2.59,1.77,3.46.21.51.11.66-.06.82s-.39.3-.66.5l-.12.07,0,0c0,.06,0,.14,0,.24s.1.25.24.28h0l0,0c.15-.09.44-.24.64-.34l.22-.11,1.54-.77,1.42-.71a6.36,6.36,0,0,0,2.88-2.75,5,5,0,0,0-.12-4.81m10.54-.69a10.57,10.57,0,0,0-.59-2.22l0,0-.05,0a.67.67,0,0,0-.51.11l0,0v.05a5.35,5.35,0,0,1,.06,1.65c0,.36-.11.57-.78,1s-1.59,1-1.87,1.09c-.13,0-.33,0-.51-.26-.45-.65-1.37-2.09-1.76-2.7l-.07-.11v0c.49-.33,1.65-1.07,2-1.26a.49.49,0,0,1,.65.08c.09.08.14.14.23.23a1.83,1.83,0,0,0,.2.21l0,0a.31.31,0,0,0,.24,0,.55.55,0,0,0,.28-.28v0l0,0c-.08-.13-.18-.27-.29-.43l-.5-.75a12,12,0,0,1-.7-1.3l0-.05-.06,0a.7.7,0,0,0-.5.27l0,0v.05a4.58,4.58,0,0,1,.2.59.53.53,0,0,1-.21.65c-.39.3-1.52,1-2,1.34h0c-.29-.46-1.46-2.33-1.88-3a.21.21,0,0,1,0-.17c.16-.14,1.71-1.11,2-1.3a.67.67,0,0,1,.89.06,5.3,5.3,0,0,1,.69.75l0,0h.06a.66.66,0,0,0,.44-.34v0l0,0a13.77,13.77,0,0,1-.92-1.95v0a.2.2,0,0,0-.25,0c-.24.19-.91.64-1.45,1l-2.64,1.68c-.45.29-.86.53-1.18.72l-.53.32,0,0v0a.36.36,0,0,0,.06.28c.06.11.12.18.19.19h0l.08,0a4.59,4.59,0,0,1,.7-.28c.3-.1.38-.08.73.41.19.23,1,1.55,1.78,2.72l0,0c.95,1.49,1.93,3,2.09,3.33.3.54.24.69,0,.9a7.28,7.28,0,0,1-.66.58l-.22.18v0a.49.49,0,0,0,.28.45h0l0,0c.25-.16.5-.32.77-.51s.73-.5,1.22-.81c.93-.6,1.6-1,2.19-1.36s.86-.52,1.29-.79c.69-.44.76-.56.74-.83m10-10.76,0,0,0,0a.38.38,0,0,0-.24,0,.61.61,0,0,0-.3.19l0,0v.05a8.91,8.91,0,0,1,.32,1.93,1.05,1.05,0,0,1-.35.93,12.42,12.42,0,0,1-2.14,1.55.37.37,0,0,1-.38-.15c-.48-.53-1.48-1.79-2.54-3.12l0-.05c-.36-.47-.74-.95-1.09-1.39l-1.07-1.39c-.22-.32-.29-.43-.1-.67s.26-.31.51-.57l0-.05a.35.35,0,0,0-.1-.27.36.36,0,0,0-.25-.17h0l-.06,0,0,0c-.25.22-.7.62-1.46,1.21-.48.39-.82.64-1.1.84l-.48.36,0,0,0,0s0,.11.07.26.21.2.23.21h0l.07,0c.21-.12.52-.31.69-.39.34-.16.44-.12.89.39.25.31.82,1,1.91,2.39,1.73,2.18,2.37,3,2.6,3.37s.2.5,0,.72a4.57,4.57,0,0,1-.44.47l-.23.22,0,0v0a.39.39,0,0,0,.11.26c.08.1.16.16.22.16h.05l0,0c.12-.09.33-.27.57-.48l1.09-.91,1.57-1.2,2-1.55c.34-.27.48-.48.45-.68a12.4,12.4,0,0,0-1-2.56m-2.88-6.78a1.36,1.36,0,0,0-.76-.46.89.89,0,0,0-.78.19,1.63,1.63,0,0,0-.22,1.17.3.3,0,0,0,.15.18.17.17,0,0,0,.17,0c.3-.12.71-.18.91.05.33.38.34.93,0,1.68v.07c0,.12.32.22.33.22h0a.17.17,0,0,0,.12-.06,2.74,2.74,0,0,0,0-3.06m8.4-2.55c-.15.17-.58.59-.89.9-.57.55-.94.92-1.1,1.06h0c-.41-.84-1.38-2.89-1.86-3.92.9.44,2.7,1.36,3.85,2h0m7.51,0h0l0,0c-1.07.81-1.16.82-2.43.31-1.11-.49-4.53-2.21-6.8-3.35l-1.89-.94c-.35-.19-.65-.36-.86-.49l-.08-.05-.06.06-.11.11a4.38,4.38,0,0,1-.32.33l-.35.33-.1.08-.07.07.06.09a6.48,6.48,0,0,1,.52.95c.54,1.13,2.78,6.06,3.8,8.65.58,1.43.5,1.65-.33,2.7l0,0v0a.65.65,0,0,0,.43.44h0l0,0a5.23,5.23,0,0,0,.38-.4c.24-.25.56-.6,1-1s.86-.82,1.21-1.14.43-.38.54-.5l0,0v0a.78.78,0,0,0-.38-.47h0l-.08.06c-.3.21-.51.37-.71.48-.5.29-.63.12-.79-.09a24.74,24.74,0,0,1-1.54-3.16.2.2,0,0,1,0-.11c.13-.16.27-.3,1.14-1.15l.06-.06c.63-.62,1-1,1.21-1.16l.08,0,.27.13c1,.47,2.43,1.18,3.1,1.57.18.1.23.17.14.38a4.67,4.67,0,0,1-.55.83l0,0v0c0,.16.31.42.41.44H240l0,0c.34-.36,1.11-1.17,1.71-1.76s1.18-1.11,1.59-1.48l.14-.13v-.05c0-.13-.24-.47-.4-.47m5.87-6.3a12.36,12.36,0,0,0-1.46-2.33l0,0h0a.53.53,0,0,0-.49.27v.05l0,0a9.15,9.15,0,0,1,.68,1.84,1,1,0,0,1-.17,1,12.62,12.62,0,0,1-1.8,1.94.41.41,0,0,1-.41-.08c-.56-.42-1.75-1.44-3-2.52l-.12-.1-1.42-1.24c-.55-.48-1-.89-1.23-1.08s-.36-.36-.22-.64a5.56,5.56,0,0,1,.38-.65l0,0v0a.34.34,0,0,0-.15-.26.39.39,0,0,0-.27-.11h0l0,0c-.16.21-.54.7-1.21,1.48-.41.48-.7.79-.94,1l-.39.43,0,0v0s0,.1.14.25.22.15.25.15h0l.07-.07c.18-.15.44-.39.59-.5.3-.23.4-.2,1,.22.31.24,1,.85,2.3,2l0,0c2.09,1.79,2.89,2.52,3.19,2.82s.29.44.18.69-.21.34-.36.57l-.19.27v0a.39.39,0,0,0,.15.23.43.43,0,0,0,.25.12h.06l0,0,.45-.54c.28-.35.63-.79.92-1.13s.83-1,1.44-1.62l1.55-1.77c.29-.33.38-.56.31-.74m4.2-5.15a.56.56,0,0,0-.24-.31.21.21,0,0,0-.18,0h0l0,0c-.28.27-.49.48-.64.61s-.48.15-.87-.12-1.55-1.14-2.73-2l-.28-.22c-1.14-.86-2.29-1.74-2.78-2.15s-.46-.47-.37-.72.25-.47.37-.67l0-.05,0,0a.58.58,0,0,0-.42-.29h-.05l0,0c-.09.12-.21.28-.34.48s-.45.64-.75,1l-.88,1.1-.39.49,0,0,0,.06c0,.08.25.34.41.31h0l0,0a5.1,5.1,0,0,1,.67-.62c.21-.16.35-.09.69.1l0,0c.63.44,1.53,1.12,2.56,1.91,1.38,1.05,3,2.32,3.38,2.63s.38.4.22.74a5.09,5.09,0,0,1-.34.62l0,.08v0c0,.12.2.24.22.25a.32.32,0,0,0,.18.07h.09l0,0c.18-.24.34-.46.51-.71s.45-.64.76-1.05.55-.7.78-1,.32-.38.42-.52l0,0Zm8.28-12.5a.72.72,0,0,0-.4-.27h-.07l0,0c-.23.27-.4.46-.55.62s-.5.25-1,0c-1-.56-5.49-3.27-6.28-3.82-.25-.16-.36-.31-.25-.63a6.4,6.4,0,0,1,.37-.91l0,0v0c0-.06-.08-.13-.19-.2a.4.4,0,0,0-.26-.09h-.05l0,0-.44.72c-.22.37-.5.84-1,1.59l-.05.09.08.07a3,3,0,0,1,.58.7c.89,1.36,3.25,5.2,3.77,6.08-1-.11-4.76-.6-7-.95a3.73,3.73,0,0,1-.92-.24l-.09,0-.06.09c-.56.88-.93,1.42-1.21,1.82l-.36.55,0,0v0c0,.1.13.2.2.25s.19.09.26.06h0l0,0a4.13,4.13,0,0,1,.75-.76.54.54,0,0,1,.69,0c1.22.88,4.71,3.5,5.58,4.23.63.56.72.73.58,1.15a2,2,0,0,1-.15.34c-.05.11-.1.22-.14.33l0,0v0a.59.59,0,0,0,.42.29h.08l0,0c.06-.09.14-.24.25-.43s.43-.73.72-1.17.52-.79.72-1.08l.29-.41v0c0-.1-.08-.19-.16-.26a.35.35,0,0,0-.29-.09l0,0a8,8,0,0,1-.63.68c-.29.27-.53.19-1.07-.15-.93-.61-3.77-2.64-5.07-3.61l1.77.29c2.27.37,5.69.92,6.66,1.2l.06,0,.05-.05a1.08,1.08,0,0,0,.24-.42V226l0,0c-.81-1-3.16-4.77-4.28-6.56l-.39-.62.44.27c1.51.94,4.32,2.7,5.05,3.18.33.23.42.39.35.63s-.17.45-.3.76v.06a.3.3,0,0,0,.13.18s.19.15.32.12h0l.12-.19c.22-.38.56-.95,1-1.59.31-.49.59-.89.82-1.22s.26-.37.33-.49l0-.06Zm4-8.27a10.79,10.79,0,0,0-1.62-1.62l0,0h-.05c-.12,0-.38.23-.39.35v.05l0,0a5.24,5.24,0,0,1,.88,1.39c.14.34.2.55-.15,1.28a21.46,21.46,0,0,1-1.08,1.88.5.5,0,0,1-.57,0c-.73-.34-2.25-1.13-2.9-1.46l-.09,0,0,0c.24-.5.88-1.74,1.13-2.11a.49.49,0,0,1,.6-.25,1.77,1.77,0,0,1,.31.08l.28.08h0a.27.27,0,0,0,.19-.14.6.6,0,0,0,.11-.39l0,0,0,0-.47-.23c-.23-.11-.5-.23-.81-.39a9.1,9.1,0,0,1-1.25-.78l-.05,0-.06,0a.68.68,0,0,0-.3.48v.05l0,0c.16.13.33.27.47.41a.54.54,0,0,1,.14.68c-.18.45-.8,1.65-1.08,2.16h0l-3.13-1.66s-.12-.12-.11-.14c.07-.2.91-1.81,1.11-2.15s.46-.44.8-.39a5.11,5.11,0,0,1,1,.3l.05,0,.05,0a.66.66,0,0,0,.22-.51l0,0,0,0a12.8,12.8,0,0,1-1.77-1.23l0,0a.21.21,0,0,0-.24.08c-.11.29-.47,1-.76,1.57l-1.44,2.79c-.25.47-.48.89-.67,1.22l-.29.53,0,0v0a.36.36,0,0,0,.19.21.35.35,0,0,0,.27.07h0l.07-.11a5.51,5.51,0,0,1,.44-.56c.21-.24.29-.26.84,0,.27.1,1.73.85,2.9,1.46,1.35.7,3.21,1.66,3.51,1.85.53.31.56.48.48.76a6.14,6.14,0,0,1-.29.85l-.09.24v0a.38.38,0,0,0,.19.19.69.69,0,0,0,.23.07h.06l0,0,0,0c.14-.27.27-.54.41-.85s.38-.78.64-1.29c.51-1,.89-1.68,1.23-2.28s.48-.88.71-1.32c.37-.73.37-.86.22-1.09m5.05-11.2-2-.8c-.81-.36-1.63-.71-2.4-1-1.49-.63-2.77-1.18-3.52-1.56-.42-.19-.56-.38-.53-.72,0-.18.05-.34.1-.58l0-.1,0,0c-.05-.12-.27-.19-.28-.2a.3.3,0,0,0-.23,0l0,0,0,0c0,.06-.08.21-.14.39-.13.34-.3.8-.43,1.12-.2.49-.4.92-.55,1.26s-.2.43-.26.59l0,0,0,0a.55.55,0,0,0,.49.22l0,0,0,0a7.22,7.22,0,0,1,.54-.88c.26-.33.48-.32.91-.18.86.27,3,1.16,4.87,1.94l1,.42c-1.5.47-6.21,1.91-8.58,2.6a3.64,3.64,0,0,1-1,.21h-.08l0,.08c0,.12-.13.35-.26.68s-.33.76-.49,1.1-.2.45-.26.6l0,0,0,.05c0,.1.23.18.26.19a.35.35,0,0,0,.23,0l0,0,0,0a2.1,2.1,0,0,1,.81-1,.89.89,0,0,1,.77-.06c3.09,1.31,5.65,2.44,6.34,2.78s.66.56.62.85a3,3,0,0,1-.15.74v.06c0,.06.06.1.15.15a.75.75,0,0,0,.28.09h.08l0,0,0-.05q.07-.18.18-.48c.11-.31.25-.69.46-1.19s.38-.88.53-1.22.2-.42.25-.56l0,0,0-.05c0-.1-.23-.19-.3-.21a.23.23,0,0,0-.2,0l-.17.26a6,6,0,0,1-.35.57c-.19.24-.38.39-1.06.17s-4.22-1.71-5.79-2.37c6.87-2,9-2.59,9.67-2.72l.06,0,0-.06c.06-.18.31-.78.39-.94l.06-.12Zm3.18-9.52c0-.06-.05-.11-.14-.16a.5.5,0,0,0-.35-.08h-.05l0,0a5.48,5.48,0,0,1-.41.84c-.17.25-.29.37-1,.19s-4.86-1.43-7.4-2.21c.11-.41.45-1.56.69-2.17a.51.51,0,0,1,.51-.38,5.71,5.71,0,0,1,1.36.17h0s.12,0,.2-.27,0-.31,0-.33l0,0a15.66,15.66,0,0,1-2.34-1.08l0,0h0a.29.29,0,0,0-.2.19h0v0a3.56,3.56,0,0,1-.24,1.45l-1.75,5.69a2.88,2.88,0,0,1-.56,1.1.2.2,0,0,0-.06.18c0,.1.05.16.1.17.63.23,1.77.73,2.36,1h0a.21.21,0,0,0,.17-.11s.19-.25.15-.38v0l0,0a8.87,8.87,0,0,1-1.21-1,.64.64,0,0,1-.18-.65c.11-.46.5-1.71.61-2l.2.06c2.58.79,6.1,1.88,7,2.19.73.27.89.41.85.8a7.91,7.91,0,0,1-.18,1.07v.05l0,0a.56.56,0,0,0,.4.18.2.2,0,0,0,.11,0l0,0,0,0c0-.16.1-.37.17-.63.12-.44.27-1,.48-1.65.14-.46.3-.94.45-1.36s.19-.56.25-.76v-.05Zm-2.7-9.25c0,.21-.15.7-.21,1-.14.61-.24,1-.29,1.2-.69-.41-2.24-1.39-3-1.85C268.29,182.34,269.9,182.18,270.91,182.1Zm5.74-3.19c-.06-.1-.25-.15-.32-.17a.26.26,0,0,0-.2,0l0,0,0,0c-.38,1-.42,1.07-1.52,1.28s-4,.47-6,.68l-1.94.21-.81,0h-.1l0,.09a.58.58,0,0,1,0,.1,3.72,3.72,0,0,1-.07.39c0,.17-.08.3-.1.38a.3.3,0,0,0,0,.11l0,.1.1,0a5.36,5.36,0,0,1,.78.42c.87.55,4.59,3,6.46,4.3,1,.73,1.07.91,1,2v0l0,0a.41.41,0,0,0,.27.13.34.34,0,0,0,.13,0,.24.24,0,0,0,.13,0l0,0v0c0-.12.05-.27.08-.45s.12-.67.23-1.15.24-.94.34-1.32.12-.46.15-.6v0l0-.05a.7.7,0,0,0-.5-.16l0,0,0,.12c-.11.27-.18.46-.26.62-.21.4-.36.35-.57.27a20.93,20.93,0,0,1-2.46-1.5l0,0c0-.18.06-.33.28-1.3l0-.12c.15-.67.25-1.08.31-1.29,0,0,0,0,0,0l.28,0c.86-.1,2.17-.25,2.8-.28.17,0,.22,0,.24.18a3.16,3.16,0,0,1,0,.81v0l0,0a.62.62,0,0,0,.5.13l.06,0,0-.06c0-.3.23-1.25.4-2s.35-1.37.46-1.79l0-.1Zm1-6.72c0-.06-.08-.1-.17-.14a.56.56,0,0,0-.36,0l-.05,0v0a5.47,5.47,0,0,1-.28.9c-.13.26-.23.4-.94.32s-5.11-.71-7.65-1.09c.05-.41.22-1.6.36-2.25a.5.5,0,0,1,.45-.45,5.29,5.29,0,0,1,1.36,0h.05s.12,0,.16-.3,0-.31-.07-.32l0,0a17.17,17.17,0,0,1-2.48-.73l0,0,0,0a.3.3,0,0,0-.17.21v0a3.53,3.53,0,0,1,0,1.48l-.89,5.89a3.13,3.13,0,0,1-.39,1.17.18.18,0,0,0,0,.19c0,.1.07.15.12.15.65.13,1.85.47,2.48.67h.05a.23.23,0,0,0,.16-.14s.15-.28.09-.4l0,0,0,0a7.63,7.63,0,0,1-1.34-.82.63.63,0,0,1-.28-.61c.05-.48.25-1.83.3-2.1,2.43.37,6.49,1,7.48,1.17.77.15.95.27,1,.66,0,.2,0,.55,0,1.09v.05l0,0a.53.53,0,0,0,.52.07l0,0v0c0-.16,0-.38.08-.65.06-.45.12-1,.23-1.71.07-.46.16-.95.24-1.38s.11-.61.14-.81v-.06Zm.86-8.67a.56.56,0,0,0-.37-.13.19.19,0,0,0-.17.06l0,0v0c-.09.41-.16.68-.22.86-.13.34-.32.39-.8.37s-1.95-.14-3.74-.29h-.08c-1.37-.12-2.79-.24-3.42-.33s-.64-.15-.7-.44a6.78,6.78,0,0,1,0-.73v-.05l0,0a.55.55,0,0,0-.51,0l-.05,0v.06c0,.14,0,.34,0,.57s0,.79-.08,1.3-.11,1-.15,1.4c0,.26-.06.48-.07.62v.06l.05,0c.07,0,.4.15.52,0l0,0v0a4.59,4.59,0,0,1,.23-.88c.09-.25.25-.27.64-.28h0c.73,0,1.73.11,3.18.24,1.73.15,3.8.34,4.26.41s.54.15.59.52a5.31,5.31,0,0,1,0,.74v0l0,0a.53.53,0,0,0,.33.1h0a.25.25,0,0,0,.21-.07l0,0v0c0-.29,0-.57.05-.87s0-.77.09-1.29.09-.9.13-1.26.06-.48.08-.65v0Zm-.27-8a3.52,3.52,0,0,1-.59,2,5.38,5.38,0,0,1-4.44,1.9c-1.76,0-3.11-.65-3.7-1.7a2.83,2.83,0,0,1-.35-1.45,3.4,3.4,0,0,1,.69-2,5.11,5.11,0,0,1,4.15-1.72h.12a4.47,4.47,0,0,1,3.59,1.37,2.66,2.66,0,0,1,.53,1.68M277,151.85a5.62,5.62,0,0,0-3.38-1h-.09a4.87,4.87,0,0,0-5.14,4.95,5.52,5.52,0,0,0,2.06,4.42,5.18,5.18,0,0,0,3.12,1h.12a5.66,5.66,0,0,0,3.82-1.35,5,5,0,0,0,1.59-3.67,5.25,5.25,0,0,0-2.1-4.34m1.86-3.41c0-.14,0-.3-.06-.51s-.09-.74-.14-1.27-.06-1-.08-1.35,0-.44,0-.59v-.05l0,0a.54.54,0,0,0-.37,0,.24.24,0,0,0-.18.09v0l0,.28a5.58,5.58,0,0,1-.05.66c-.06.31-.16.53-.86.64-.87.1-4.52.4-6.23.53,5.18-4.91,6.86-6.42,7.35-6.83l.06,0,0-.07c0-.18-.08-.83-.08-1v-.13l-.13,0-2.16.21c-.88.05-1.76.12-2.58.18-1.63.12-3,.22-3.87.22-.4,0-.66,0-.8-.4a5.51,5.51,0,0,1-.19-.63v0l0,0c-.1-.09-.34-.05-.35-.05a.32.32,0,0,0-.2.1l0,0v0c0,.07,0,.26.06.5s.09.78.12,1.1c0,.52.06,1,.08,1.35s0,.49,0,.67v0l0,0a.53.53,0,0,0,.53,0l0,0v0a7.31,7.31,0,0,1,.09-1c.08-.41.28-.5.73-.57.86-.15,3.1-.33,5.07-.49l1.24-.1c-1.12,1.1-4.65,4.52-6.45,6.22a3.51,3.51,0,0,1-.8.65l-.07,0,0,.09c0,.11,0,.35.07.64v.08c0,.39.05.81.07,1.18s0,.52,0,.68v0l0,0a.48.48,0,0,0,.24.05c.12,0,.25,0,.29-.08l0,0v0a2.2,2.2,0,0,1,.27-1.26.83.83,0,0,1,.66-.4c3.34-.25,6.13-.41,6.91-.43s.84.19.94.48a3.27,3.27,0,0,1,.2.73l0,.05a.23.23,0,0,0,.2.07s.26,0,.35-.09l0,0Z"/></g></g></svg>
