<svg width="200px" height="100px" xmlns="http://www.w3.org/2000/svg" viewBox="0 0 315.08 84.09">
    <defs>
        <style>.cls-1{fill:#a9705d;}</style>
    </defs>
    <g id="Layer_2" data-name="Layer 2">
        <g id="margin">
            <path class="cls-1" d="M144.12,0h-2.39c-.08,0-.12,0-.11.13l.63,7.18a.11.11,0,0,0,.11.12h1.13c.08,0,.11,0,.12-.12l.62-7.18C144.24,0,144.2,0,144.12,0Z"/>
            <path class="cls-1" d="M125.2,2.61,123.13,3.8a.1.1,0,0,0,0,.17l4.13,5.91a.11.11,0,0,0,.16,0l1-.56a.11.11,0,0,0,0-.16l-3-6.53C125.32,2.58,125.27,2.57,125.2,2.61Z"/>
            <path class="cls-1" d="M160.66,2.61l2.07,1.19a.1.1,0,0,1,0,.17l-4.13,5.91c0,.06-.09.08-.15,0l-1-.56a.12.12,0,0,1-.05-.16l3.06-6.53C160.53,2.58,160.59,2.57,160.66,2.61Z"/>
            <rect class="cls-1" x="159.77" y="35.62" width="4.35" height="4.35"/>
            <rect class="cls-1" x="120.65" y="35.64" width="4.35" height="4.35"/>
            <path class="cls-1" d="M168.52,44.32V28.51h0L156.28,16.26H129.65L116.3,29.1V50.21h52.23Zm-1.13-15.4V49.11h-12V35.62h-4.35V49.11h-7.6v-20l12.6-11.49Zm-25,.18h0v20h-25v-20Z"/>
            <path class="cls-1" d="M190.58,47.6a2.81,2.81,0,0,0,1.8,1.09v3.86a5,5,0,0,1-4.66-2.39,7.12,7.12,0,0,1-2.27.38,5.38,5.38,0,0,1-5.29-3.32,8.43,8.43,0,0,1-.76-3.36V25.67c.13-3.77,2-6.68,6-6.68a5.45,5.45,0,0,1,5.3,3.36,8.35,8.35,0,0,1,.75,3.32V43.86A10.09,10.09,0,0,1,190.58,47.6ZM187,43.86V25.67c0-1.13-.33-2.27-1.51-2.27s-1.51,1.16-1.51,2.27V43.86c0,1.15.38,2.27,1.51,2.27S187,45,187,43.86Z"/>
            <path class="cls-1" d="M202.17,43.86V19.32h4.54V43.86a6.94,6.94,0,0,1-2.56,5.63,6,6,0,0,1-8.78-2.27,8.26,8.26,0,0,1-.76-3.36V19.32h4.54V43.86c0,1.15.38,2.27,1.51,2.27S202.17,45,202.17,43.86Z"/>
            <path class="cls-1" d="M214.56,19.32V50.2H210V19.32Z"/>
            <path class="cls-1" d="M228,50.2h-3.57V19.32H228c4.2,0,6.47.84,7.69,3.2S237,28.73,237,34.78s-.16,9.87-1.34,12.23S232.16,50.2,228,50.2ZM231.83,44a13.32,13.32,0,0,0,.42-3.27c0-1.47,0-3.45,0-6s0-4.49,0-6a14.11,14.11,0,0,0-.42-3.28c-.46-1.47-1.35-1.64-2.9-1.64v21.8C230.48,45.66,231.37,45.5,231.83,44Z"/>
            <path class="cls-1" d="M244.56,19.32V50.2H240V19.32Z"/>
            <path class="cls-1" d="M246.32,19.32h13.11V24h-4.29V50.2h-4.53V24h-4.29Z"/>
            <path class="cls-1" d="M276.25,49.49a6,6,0,0,1-8.78-2.27,8.43,8.43,0,0,1-.75-3.36V25.67c.13-3.77,2-6.68,6-6.68a5.44,5.44,0,0,1,5.29,3.36,8.35,8.35,0,0,1,.76,3.32V43.86A6.92,6.92,0,0,1,276.25,49.49Zm-2-5.63V25.67c0-1.13-.33-2.27-1.51-2.27s-1.51,1.16-1.51,2.27V43.86c0,1.15.38,2.27,1.51,2.27S274.28,45,274.28,43.86Z"/>
            <path class="cls-1" d="M289.4,43.86V19.32h4.54V43.86a6.91,6.91,0,0,1-2.56,5.63,6,6,0,0,1-8.78-2.27,8.43,8.43,0,0,1-.76-3.36V19.32h4.54V43.86c0,1.15.38,2.27,1.51,2.27S289.4,45,289.4,43.86Z"/>
            <path class="cls-1" d="M301.8,19.32V50.2h-4.54V19.32Z"/>
            <path class="cls-1" d="M315.08,19.32l-1.14,22.56H311.3l-1.14-22.56Zm-.25,26.22V50.2h-4.42V45.54Z"/>
            <path class="cls-1" d="M4.54,19.32V46h6v4.2H0V19.32Z"/>
            <path class="cls-1" d="M15.79,19.32h5.55L26,50.2H21.59l-.84-6.3H16.38l-.84,6.3H11.13Zm2.9,9.25h-.25c-.51,3.48-1,7-1.43,10.54h3.11l-1.3-9.75Z"/>
            <path class="cls-1" d="M40.33,37.18H39.11v13H34.57V19.32h4.54c5.42,0,7.73,3.07,7.73,8.91,0,3.07-.8,5.84-2.52,7l2.9,15H42.68Zm2.14-8.78c0-3.17-.94-4.58-3.36-4.58V33C41.48,33,42.47,31.54,42.47,28.4Z"/>
            <path class="cls-1" d="M57.26,43.86V19.32h4.53V43.86a6.88,6.88,0,0,1-2.56,5.63,5.4,5.4,0,0,1-3.49,1,5.39,5.39,0,0,1-5.29-3.32,8.6,8.6,0,0,1-.76-3.36V19.32h4.54V43.86c0,1.15.38,2.27,1.51,2.27S57.26,45,57.26,43.86Z"/>
            <path class="cls-1" d="M72.67,43.86V39.61h4.25v4.25a6.92,6.92,0,0,1-2.57,5.63,6,6,0,0,1-8.78-2.27,8.43,8.43,0,0,1-.75-3.36V25.67C65,21.9,66.84,19,70.87,19a5.44,5.44,0,0,1,5.29,3.36,8.52,8.52,0,0,1,.76,3.32v4.24H72.67V25.67c0-1.19-.42-2.27-1.72-2.27s-1.49,1.18-1.6,2.27V43.86c.06,1.12.47,2.27,1.6,2.27C72.3,46.13,72.67,45.13,72.67,43.86Z"/>
            <path class="cls-1" d="M84.18,36.76V50.2H79.65V19.32h4.53V32.09h3.53V19.32h4.54V50.2H87.71V36.76Z"/>
            <path class="cls-1" d="M106,19.32V24h-5.84v8.1h4.2v5h-4.2v8.49H106V50.2H95.61V19.32Z"/>
            <path class="cls-1" d="M76.77,77.54V65.65h2.36v12c0,.57.26.78.51.78a1.49,1.49,0,0,0,.37,0l.3,1.76a3.24,3.24,0,0,1-1.25.2C77.38,80.36,76.77,79.28,76.77,77.54Z"/>
            <path class="cls-1" d="M81.79,77.41c0-2.15,1.79-3.28,5.92-3.73,0-1.06-.47-2-1.84-2a5.78,5.78,0,0,0-2.83,1l-.86-1.58a7.85,7.85,0,0,1,4.14-1.31c2.5,0,3.75,1.54,3.75,4.34v6H88.12L88,79h-.08a4.89,4.89,0,0,1-3.12,1.35A2.81,2.81,0,0,1,81.79,77.41Zm5.92,0V75.16c-2.74.35-3.64,1.06-3.64,2.07s.61,1.29,1.45,1.29A3.17,3.17,0,0,0,87.71,77.41Z"/>
            <path class="cls-1" d="M92.9,70.06h1.95L95,71.84h.09a3.41,3.41,0,0,1,2.84-2,2.61,2.61,0,0,1,1.15.2l-.41,2a3.34,3.34,0,0,0-1-.16c-.8,0-1.77.55-2.38,2.07v6.15H92.9Z"/>
            <path class="cls-1" d="M100.45,76.37V70.06h2.35v6c0,1.66.47,2.27,1.56,2.27a2.69,2.69,0,0,0,2.23-1.39V70.06H109V80.12H107l-.18-1.48h-.06a4.09,4.09,0,0,1-3.24,1.72C101.39,80.36,100.45,78.91,100.45,76.37Z"/>
            <path class="cls-1" d="M111.29,75.1a5,5,0,0,1,5-5.29,4.3,4.3,0,0,1,3,1.13l-1.14,1.53a2.48,2.48,0,0,0-1.68-.73c-1.62,0-2.75,1.33-2.75,3.36s1.11,3.34,2.68,3.34a3.35,3.35,0,0,0,2.07-.86l1,1.55a5,5,0,0,1-3.28,1.23C113.4,80.36,111.29,78.44,111.29,75.1Z"/>
            <path class="cls-1" d="M121.42,65.65h2.35v3.73l-.08,2a4.62,4.62,0,0,1,3.22-1.52c2.15,0,3.09,1.45,3.09,4v6.31h-2.35v-6c0-1.66-.47-2.27-1.58-2.27a3.22,3.22,0,0,0-2.3,1.25v7h-2.35Z"/>
            <path class="cls-1" d="M132.2,75.1c0-3.28,2.28-5.29,4.63-5.29,2.73,0,4.16,2,4.16,4.77a5.54,5.54,0,0,1-.1,1.15H134.5a2.88,2.88,0,0,0,3,2.81,4.18,4.18,0,0,0,2.33-.74l.8,1.48a6.37,6.37,0,0,1-3.44,1.08C134.37,80.36,132.2,78.42,132.2,75.1Zm6.74-1c0-1.55-.67-2.5-2.05-2.5a2.52,2.52,0,0,0-2.41,2.5Z"/>
            <path class="cls-1" d="M149.46,80.79l.08-1.68a4.11,4.11,0,0,1-2.77,1.25c-2.52,0-4.13-1.94-4.13-5.26s2.06-5.29,4.26-5.29A3.71,3.71,0,0,1,149.68,71h.07l.2-1h1.87v14h-2.36Zm0-3.5V72.6a3,3,0,0,0-2.05-.84c-1.29,0-2.34,1.2-2.34,3.32s.82,3.34,2.28,3.34A2.72,2.72,0,0,0,149.46,77.29Z"/>
            <path class="cls-1" d="M154.71,76.37V70.06h2.36v6c0,1.66.47,2.27,1.55,2.27.89,0,1.48-.41,2.24-1.39V70.06h2.35V80.12h-1.92l-.19-1.48H161a4.08,4.08,0,0,1-3.24,1.72C155.65,80.36,154.71,78.91,154.71,76.37Z"/>
            <path class="cls-1" d="M165.94,67a1.46,1.46,0,1,1,1.46,1.33A1.35,1.35,0,0,1,165.94,67Zm.27,3.1h2.36V80.12h-2.36Z"/>
            <path class="cls-1" d="M171,75.1c0-3.28,2.07-5.29,4.26-5.29a3.69,3.69,0,0,1,2.64,1.11l-.08-1.62V65.65h2.36V80.12h-2L178,79H178a4.16,4.16,0,0,1-2.84,1.33C172.58,80.36,171,78.42,171,75.1Zm6.82,2.19V72.6a3,3,0,0,0-2-.84c-1.29,0-2.34,1.2-2.34,3.32s.82,3.34,2.28,3.34A2.72,2.72,0,0,0,177.79,77.29Z"/>
            <path class="cls-1" d="M182.88,67a1.46,1.46,0,1,1,1.45,1.33A1.35,1.35,0,0,1,182.88,67Zm.26,3.1h2.36V80.12h-2.36Z"/>
            <path class="cls-1" d="M188.86,76.72v-4.8h-1.43V70.16l1.56-.1.28-2.75h2v2.75h2.56v1.86h-2.56v4.8c0,1.18.45,1.76,1.41,1.76a3,3,0,0,0,1-.23l.41,1.74a6.26,6.26,0,0,1-2.05.37C189.72,80.36,188.86,78.89,188.86,76.72Z"/>
            <path class="cls-1" d="M194.93,75.1c0-3.36,2.27-5.29,4.77-5.29s4.8,1.93,4.8,5.29-2.27,5.26-4.8,5.26S194.93,78.44,194.93,75.1Zm7.15,0c0-2-.9-3.36-2.38-3.36s-2.35,1.33-2.35,3.36.88,3.34,2.35,3.34S202.08,77.1,202.08,75.1Z"/>
            <path class="cls-1" d="M206.74,76.37V70.06h2.35v6c0,1.66.48,2.27,1.56,2.27.88,0,1.48-.41,2.24-1.39V70.06h2.35V80.12h-1.92l-.19-1.48h-.06a4.08,4.08,0,0,1-3.24,1.72C207.68,80.36,206.74,78.91,206.74,76.37Z"/>
            <path class="cls-1" d="M218,67a1.46,1.46,0,1,1,1.46,1.33A1.35,1.35,0,0,1,218,67Zm.27,3.1h2.36V80.12h-2.36Z"/>
            <path class="cls-1" d="M223.4,78.76a1.53,1.53,0,0,1,1.54-1.59,1.6,1.6,0,0,1,0,3.19A1.54,1.54,0,0,1,223.4,78.76Z"/>
            <path class="cls-1" d="M229.66,71.92H228.3V70.16l1.36-.1V69c0-2.09,1-3.61,3.34-3.61a5.19,5.19,0,0,1,1.84.35l-.45,1.76a2.85,2.85,0,0,0-1.11-.24c-.82,0-1.27.53-1.27,1.7v1.09h2v1.86h-2v8.2h-2.35Z"/>
            <path class="cls-1" d="M235.75,70.06h1.94l.17,1.78h.08a3.42,3.42,0,0,1,2.85-2,2.56,2.56,0,0,1,1.14.2l-.41,2a3.29,3.29,0,0,0-1-.16c-.8,0-1.76.55-2.38,2.07v6.15h-2.35Z"/>
        </g>
    </g>
</svg>
