<svg height="100" width="100" version="1.1" id="Layer_1" xmlns="http://www.w3.org/2000/svg" xmlns:xlink="http://www.w3.org/1999/xlink" x="0px" y="0px"
	 viewBox="0 0 512 512" style="enable-background:new 0 0 512 512;" xml:space="preserve">
<path class="st0" d="M439.5,96.4c-1.4-3-4.9-4.3-7.9-2.9l-101.8,46.3c-7.2,3-10.7,11.2-7.7,18.4c0.1,0.2,0.2,0.5,0.3,0.7l3.2,6.7
	l-1.7,0.7c-10.3,2.1-17.5,1.8-28.2-1.1l-26.6-7.5c-7.7-2.2-15.9-2-23.6,0.4l-25.6,8.1c-5.2,1.6-10,4.3-14.1,7.8
	c-7.3-2.2-15-2.9-22.5-2.1l2.6-4.9c3.5-6.6,1.2-14.8-5.2-18.7c0,0-0.1-0.1-0.1-0.1L87.9,95c-2.9-1.7-6.5-0.7-8.2,2.2
	c0,0.1-0.1,0.1-0.1,0.2L3.1,243.9c-1.5,2.9-0.4,6.4,2.4,8l92.2,51.6c2.1,1.2,4.5,1.8,6.9,1.8c1.4,0,2.7-0.2,4-0.6
	c3.7-1.1,6.8-3.6,8.5-7l0.9-1.6l9,9.1l-13.4,18.6c-7,9.7-4.8,23.2,4.9,30.2l2.1,1.5c3.7,2.7,8.1,4.1,12.6,4.1c1.3,0,2.7-0.1,4-0.4
	c0,0.2,0,0.3,0.1,0.5c0.9,5.7,4,10.7,8.7,14.1l2.1,1.5c3.7,2.7,8.1,4.1,12.6,4.1c1.3,0,2.7-0.1,4-0.4c0,0.2,0,0.3,0.1,0.5
	c0.9,5.7,4,10.7,8.7,14.1l2.1,1.5c3.7,2.7,8.1,4.1,12.6,4.1c1.3,0,2.7-0.1,4-0.4c0.8,5.9,4,11.1,8.8,14.6l2.1,1.5
	c9.7,7,23.2,4.8,30.2-4.9l6.2-8.5l9.9,7.9c10.3,8.8,25.8,7.6,34.7-2.7c3.3-3.9,5.4-8.7,5.8-13.9c12.8,4.4,26.8-2.4,31.2-15.2
	c0.7-1.9,1.1-3.9,1.3-5.9c12.8,4.4,26.8-2.4,31.2-15.2c0.6-1.6,1-3.3,1.2-5.1c3.1,1.4,6.4,2.1,9.8,2.1c0.6,0,1.2,0,1.9-0.1
	c6.5-0.5,12.6-3.5,16.9-8.5l0.3-0.4c4.4-5,6.5-11.7,5.7-18.3c-0.7-6.2-3.8-11.9-8.6-15.9l-6-5.2c4.4-3,8.3-6.6,11.7-10.6
	c2.5,4.2,7.1,6.8,12,6.8c1.9,0,3.9-0.4,5.7-1.2l0.2-0.1l101.7-47.6c2.2-1,3.6-3.3,3.5-5.7c0-0.8-0.3-1.7-0.6-2.4L439.5,96.4z
	 M107.3,290.8c-0.9,1.8-3.2,2.5-4.9,1.5c0,0-0.1,0-0.1,0l-85.8-48l70.9-135.7l85.8,49.3c1.7,1,2.3,3.1,1.4,4.8L107.3,290.8z
	 M141.1,343.6c-3.1,4.3-9.1,5.3-13.5,2.2l-2.1-1.5c-4.3-3.1-5.3-9.1-2.2-13.5c0,0,0,0,0,0l27.1-37.6c3.1-4.3,9.1-5.3,13.5-2.2
	l2.1,1.5c4.3,3.1,5.3,9.1,2.2,13.5c0,0,0,0,0,0L141.1,343.6z M168.7,363.4c-3.1,4.3-9.1,5.3-13.5,2.2l-2.1-1.5
	c-4.3-3.1-5.3-9.1-2.2-13.5l20.1-27.9c3.1-4.3,9.1-5.3,13.5-2.2l2.1,1.5c4.3,3.1,5.3,9.1,2.2,13.5L168.7,363.4z M196.2,383.3
	c-3.1,4.3-9.1,5.3-13.5,2.2l-2.1-1.5c-4.3-3.1-5.3-9.1-2.2-13.5l14.3-19.9c3.1-4.3,9.1-5.3,13.5-2.2l2.1,1.5
	c4.3,3.1,5.3,9.1,2.2,13.5L196.2,383.3z M232.2,391.2l-8.6,11.9c-3.1,4.3-9.1,5.3-13.5,2.2l-2.1-1.5c-4.3-3.1-5.3-9.1-2.2-13.5
	l8.6-11.9c3.1-4.3,9.1-5.3,13.5-2.2l2.1,1.5C234.4,380.8,235.4,386.9,232.2,391.2L232.2,391.2z M365.2,296.9l0.7,0.7l-17.9-15.5
	c-2.2-1.9-4.3-3.9-6.4-5.9l-35.2-34.8c-1.5-1.5-3.9-1.5-5.4,0c-0.7,0.7-1.1,1.7-1.1,2.7c0.3,4.9,2.2,9.6,5.5,13.3l27.9,27.5
	c2.1,2,4.2,4,6.4,5.9l33.7,29.1c2.5,2.2,4,5.3,4.2,8.6c0.1,3.2-1,6.3-3.2,8.7l-0.1,0.1c-2.2,2.6-5.3,4.1-8.7,4.4
	c-3.3,0.3-6.6-0.8-9.2-3l-36.1-31.2c-2.5-2.2-6.2-2.1-8.5,0.3c-2.2,2.4-2.1,6.2,0.4,8.5c0,0,0.1,0.1,0.1,0.1l0.1,0.1l26.3,22.7
	c5.3,4.6,5.8,12.5,1.3,17.8c-4.6,5.3-12.5,5.8-17.8,1.3l-26.3-22.7c-2.5-2.2-6.3-2-8.5,0.5c-2.2,2.5-2,6.3,0.5,8.5
	c0.1,0,0.1,0.1,0.2,0.1l18.2,15.7c5.3,4.5,5.9,12.5,1.4,17.8c-4.5,5.3-12.5,5.9-17.8,1.4c0,0-0.1-0.1-0.1-0.1l-18-15.5
	c-2.5-2.2-6.2-2.1-8.5,0.3c-2.2,2.4-2.1,6.2,0.4,8.5c0,0,0.1,0.1,0.1,0.1l10,8.6c5.3,4.6,5.8,12.5,1.3,17.8s-12.5,5.8-17.8,1.3l0,0
	l-11.8-9.4c2.2-8.6-1.1-17.6-8.3-22.8l-2.1-1.5c-3.3-2.4-7.1-3.7-11.2-4c1.9-8.4-1.5-17.2-8.5-22.3l-2.1-1.5
	c-3.3-2.4-7.1-3.7-11.2-4c1.9-8.4-1.4-17.2-8.5-22.3l-2.1-1.5c-3.1-2.2-6.6-3.6-10.4-3.9c2.8-8.9-0.4-18.6-8-24.1l-2.1-1.5
	c-9.7-7-23.2-4.8-30.2,4.9l-6.6,9.2L123.9,285l52.4-99.7c6.8-1.8,13.9-2.2,20.9-1.1c-1,1.7-1.9,3.5-2.7,5.3l-21.1,57.8
	c-1,2.9,0.5,6.1,3.3,7.3l1.7,0.8c12.4,5.7,27,4.6,38.4-3c9.8-6.5,16.2-17.1,17.3-28.8v0c0.1-1,0.3-2.1,0.6-3.1
	c0.9-3.1,3.1-8.9,7.4-10.8c1.1-0.5,2.4-0.6,3.6-0.2l9.8,2.8c4.2,1.2,8,3.4,11.1,6.5l14.9,14.7c3.5,3.5,7,3.9,9.4,2
	c2.6-2,3.1-5.8,1.1-8.4c-0.2-0.2-0.3-0.4-0.5-0.6l-16.4-16.2c-4.5-4.5-10.2-7.8-16.3-9.5l-12-3.4c-0.5-0.2-1.1-0.2-1.7-0.2
	c-7.8,0-14.5,4.4-18.8,12.4c-1.7,3.1-2.9,6.5-3.7,10c-0.1,0.6-0.2,1.3-0.3,1.9l-0.1,1.1c-0.8,8.1-5.2,15.5-12.1,20
	c-7,4.5-15.6,5.7-23.5,3.2l19.1-51.6c3.3-7.9,9.9-13.9,18.1-16.5l25.6-8.1c5.4-1.7,11.2-1.8,16.7-0.3l26.6,7.5
	c12.8,3.6,21.8,3.9,34.5,1.2l3.8-1.5l49.9,105.9C376.8,288.5,371.5,293.5,365.2,296.9L365.2,296.9z M403,287.5
	c-1.5,0.7-3.1,0.8-4.6,0.2c-1.5-0.5-2.7-1.7-3.4-3.1L335.2,158c-0.9-2-0.9-4.3,0.2-6.2c0.8-1.3,1.9-2.3,3.3-2.9l92.4-42.1
	l64.4,137.4L403,287.5z"/>
</svg>
